/* XPM */
static char *result[] = {
/* columns rows colors chars-per-pixel */
"64 64 134 2 ",
"   c black",
".  c #0D0A00",
"X  c #2A2100",
"o  c #4B3B00",
"O  c #725A00",
"+  c #907100",
"@  c #FF7C21",
"#  c #FF742A",
"$  c #F77234",
"%  c #FA7A36",
"&  c #F67C3D",
"*  c #E57851",
"=  c #AB8600",
"-  c #C59B00",
";  c #FE9A11",
":  c #FFA600",
">  c #FFAB00",
",  c #FBA70A",
"<  c #E2B100",
"1  c #FFB300",
"2  c #FFBC00",
"3  c #FFB908",
"4  c #FEAD10",
"5  c #F5A918",
"6  c #F6B616",
"7  c #FCB419",
"8  c #F4BB1C",
"9  c #FF8422",
"0  c #FF8B20",
"q  c #FF922B",
"w  c #FC9C2E",
"e  c #FE8D35",
"r  c #FD863D",
"t  c #FDA623",
"y  c #F2AA21",
"u  c #EAAC32",
"i  c #FFC400",
"p  c #FFC800",
"a  c #FEC40B",
"s  c #FDC90B",
"d  c #F6C715",
"f  c #F7C816",
"g  c #FECC13",
"h  c #F3C71D",
"j  c #F5C81A",
"k  c #FFCF1B",
"l  c #FFD01D",
"z  c #EFC727",
"x  c #EDC62C",
"c  c #F0C723",
"v  c #FFD123",
"b  c #FFD42D",
"n  c #E9C635",
"m  c #E6C53C",
"M  c #EAC839",
"N  c #FFD635",
"B  c #F7D23C",
"V  c #FFD73A",
"C  c #FFD83E",
"Z  c #F98944",
"A  c #F48B4D",
"S  c #EF8F56",
"D  c #EB915D",
"F  c #DAAF57",
"G  c #D6B05E",
"H  c #E4AD41",
"J  c #DE8E69",
"K  c #DD9975",
"L  c #DA9B79",
"P  c #E69466",
"I  c #E09870",
"U  c #D5BE62",
"Y  c #D0B16D",
"T  c #D6B86D",
"R  c #DFC54C",
"E  c #DCC551",
"W  c #D6C45E",
"Q  c #E3C543",
"!  c #E0C54A",
"~  c #F2D146",
"^  c #FFD943",
"/  c #FFDC4E",
"(  c #FFDC50",
")  c #CFC36E",
"_  c #D4C364",
"`  c #CCC274",
"'  c #C7C27E",
"]  c #C9C27B",
"[  c #BEB594",
"{  c #BBB59A",
"}  c #BABF9C",
"|  c #BC9EA0",
" . c #BFA9A5",
".. c #BAACAE",
"X. c #B6B6A3",
"o. c #B6BFA3",
"O. c #B3B7AA",
"+. c #B2BEAB",
"@. c #ACA9BB",
"#. c #B5AEB5",
"$. c #B1AEB9",
"%. c #AEBCB4",
"&. c #AEB1BF",
"*. c #AABCBC",
"=. c #B0BEB1",
"-. c #CC9786",
";. c #C7988E",
":. c #CB9C8A",
">. c #D59E82",
",. c #D19F88",
"<. c #C29491",
"1. c #CEA28D",
"2. c #C6B382",
"3. c #CBB386",
"4. c #CAA393",
"5. c #C4A49B",
"6. c #BDC095",
"7. c #BAC09A",
"8. c #C5C183",
"9. c #C2C18B",
"0. c #9EB6D5",
"q. c #9EBAD5",
"w. c #97BBDF",
"e. c #99BADD",
"r. c #ABB3C4",
"t. c #A6BCC4",
"y. c #A8BBC0",
"u. c #A5B5CC",
"i. c #A9B3C8",
"p. c #A2BCCC",
"a. c #A2B7D2",
"s. c #A0BAD2",
"d. c #97BAE1",
"f. c #98BAE0",
/* pixels */
"e.e.e.e.e.e.e.e.e.e.e.e.e.e.e.e.e.e.e.e.e.e.e.e.e.e.e.e.e.e.e.e.e.e.e.e.e.e.e.e.e.e.e.e.e.e.e.e.e.e.e.e.e.e.e.e.e.e.e.e.e.e.e.e.",
"e.e.e.e.e.e.e.e.e.e.e.e.e.e.e.e.e.e.e.e.e.e.e.e.e.e.e.e.e.e.e.e.e.e.e.e.e.e.e.e.e.e.e.e.e.e.e.e.e.e.e.e.e.e.e.e.e.e.e.e.e.e.e.e.",
"e.e.e.e.e.e.e.e.e.e.e.e.e.e.e.e.e.e.e.e.e.e.e.e.e.e.e.e.e.e.e.e.e.e.e.e.e.e.e.e.e.e.e.e.e.e.e.e.e.e.e.e.e.e.e.e.e.e.e.e.e.e.e.e.",
"e.e.e.e.e.e.e.e.e.e.e.e.e.e.e.e.e.e.e.e.e.e.e.e.e.e.e.e.e.e.e.e.e.e.e.e.e.e.e.e.e.e.e.e.e.e.e.e.e.e.e.e.e.e.e.e.e.e.e.e.e.e.e.e.",
"e.e.e.e.e.e.e.e.e.e.e.e.e.e.e.e.e.e.e.e.e.e.e.e.e.e.e.e.e.e.e.e.e.e.e.e.e.e.e.e.e.e.e.e.e.e.e.e.e.e.e.e.e.e.e.e.e.e.e.e.e.e.e.e.",
"e.e.e.e.e.e.e.e.e.e.e.e.e.e.e.e.e.e.e.e.e.e.e.e.e.e.e.e.e.e.e.e.e.e.e.e.e.e.e.e.e.e.e.e.e.e.e.w.e.e.e.e.e.e.e.e.e.e.e.e.e.e.e.e.",
"e.e.e.e.e.e.e.e.e.e.e.e.e.e.e.e.e.e.e.e.e.e.e.e.e.e.e.e.e.e.e.e.e.e.e.e.e.e.e.e.e.e.e.e.e.e.w.w.e.e.e.e.e.e.e.e.e.e.e.e.e.e.e.e.",
"e.e.e.e.e.e.e.e.e.e.e.e.e.e.e.e.e.e.e.e.e.e.e.e.e.e.e.e.e.e.e.e.e.d.f.d.e.d.e.e.d.e.e.e.e.q.#.-.:.0.e.e.e.e.e.e.e.e.e.e.e.e.e.e.",
"e.e.e.e.e.e.e.e.e.e.e.e.e.e.e.e.e.e.e.e.e.e.e.e.e.e.e.w.e.e.w.e.*.6.` _ W _ ` 7.t.q.d.f.&.J % # # 5.w.e.e.e.e.e.e.e.e.e.e.e.e.e.",
"e.e.e.e.e.e.e.e.e.e.e.e.e.e.e.e.e.e.e.e.e.e.e.e.e.e.e.w.e.q.7.R h g g g s p p p h E 7.1.& # # # # -.w.e.e.e.e.e.e.e.e.e.e.e.e.e.",
"e.e.e.e.e.e.e.e.e.e.e.e.e.e.e.e.e.e.e.e.e.e.e.e.e.e.f.f.%.R s l N ^ / / ^ v p p p p p 4 9 # # # # ;.w.e.e.e.e.e.e.e.e.e.e.e.e.e.",
"e.e.e.e.e.e.e.e.e.e.e.e.e.e.e.e.e.e.e.e.e.e.e.e.w.q.y.9.c g C / ( / / / ( ^ s p p p p p 3 0 # # # | w.e.e.e.e.e.e.e.e.e.e.e.e.e.",
"e.e.e.e.e.e.e.e.e.e.e.e.e.e.e.e.e.e.e.e.e.e.e.q.9.Q j p l / / / / ( ( / ( ^ s p p p = + < p 0 # $ @.e.e.e.e.e.e.e.e.e.e.e.e.e.e.",
"e.e.e.e.e.e.e.e.e.e.e.e.e.e.e.e.e.e.e.e.e.d.t.R p p p l / ( / / / / / / / v p p p - .   O p 3 @ * 0.e.e.e.e.e.e.e.e.e.e.e.e.e.e.",
"e.e.e.e.e.e.e.e.e.e.e.e.e.e.e.e.e.e.e.e.e.d.8.g j p s C ( / / / ( ( ( / b p p p p < o X = p p ; <.e.e.e.e.e.e.e.e.e.e.e.e.e.e.e.",
"e.e.e.e.e.e.e.e.e.e.e.e.e.e.e.e.e.e.e.e.e.e.s.6.! s s / ( / ( ( / ( / v p p p p p p i < i p p d %.e.e.e.e.e.e.e.e.e.e.e.e.e.e.e.",
"e.e.e.e.e.e.e.e.e.e.e.e.e.e.e.e.e.e.e.e.e.e.} z p p p C ( ( ( / ^ N g p p p p p p p p p p p p p U e.e.e.e.e.e.e.e.e.e.e.e.e.e.e.",
"e.e.e.e.e.e.e.e.e.e.e.e.e.e.e.e.e.e.e.e.e.s.m s s p p s v b b l g p p p p p p p p p p p p p p p 8 r.e.e.e.e.e.e.e.e.e.e.e.e.e.e.",
"e.e.e.e.e.e.e.e.e.e.e.e.e.e.e.e.e.e.e.e.e.e.*.%.E p p i p p p p p p p p p p p p p p p p p p p p 3 { d.e.e.e.e.e.e.e.e.e.e.e.e.e.",
"e.e.e.e.e.e.e.e.e.e.e.e.e.e.e.e.e.e.e.e.e.e.e.d._ p p p p p p p p p p i p p p p p p p p p p p p 1 2.d.e.e.e.e.e.e.e.e.e.e.e.e.e.",
"e.e.e.e.e.e.e.e.e.e.e.e.e.e.e.e.e.e.e.e.e.e.e.e.' p p p p p p p p p p p p p p p p p p p p p p p 1 2.d.e.e.e.e.e.e.e.e.e.e.e.e.e.",
"e.e.e.e.e.e.e.e.e.e.e.e.e.e.e.e.e.e.e.e.e.e.e.f.=.s p p p p p p p p p p p p p p p p p p p p p i > { d.e.e.e.e.e.e.e.e.e.e.e.e.e.",
"e.e.e.e.e.e.e.e.e.e.e.e.e.e.e.e.e.e.e.e.e.e.e.e.q.Q p p p i p p p p p p p p i p p p p p p p p i 5 *.e.e.e.e.e.e.e.e.e.e.e.e.e.e.",
"e.e.e.e.e.e.e.q.e.e.e.e.e.e.e.e.e.e.e.e.e.e.e.e.e.o.s p p p p p p p p p p p p p p p p p p p i > H q.e.e.e.e.e.e.e.e.e.e.e.e.e.e.",
"e.e.e.e.e.e.e.e.e.e.e.e.e.e.e.e.e.e.e.e.e.e.e.e.e.e.) i p p p p p p p p p i p p p p p p p p 2 : [ e.e.e.e.e.e.e.e.e.e.e.e.e.e.e.",
"e.e.e.e.e.e.e.e.e.d.e.q.e.f.e.e.e.e.e.e.e.e.e.e.e.e.s._ p p p p p p p p p p p p p p p p p 2 : u t.e.e.e.e.e.e.e.e.e.e.e.e.e.e.e.",
"e.e.e.e.e.e.e.e.d.*.U m ! ` y.d.e.e.e.e.e.e.e.e.e.e.w.p.n i p p p p p p p p p p p p p p 1 : , [ e.e.e.e.e.e.e.e.e.e.e.e.e.e.e.e.",
"e.e.e.e.e.e.e.e.t.x i > i p c 9.q.d.e.e.e.e.e.e.e.e.e.9.s p p p p p p p p p p p p i 2 > : : F q.e.e.e.e.e.e.e.e.e.e.e.e.e.e.e.e.",
"e.e.e.e.e.e.e.e.` p p 1 > 2 i p ! o.q.w.f.e.e.d.d.q.8.d p p i i 2 2 i i i i i 2 1 > : : : , { d.e.e.e.e.e.e.e.e.e.e.e.e.e.e.e.e.",
"e.e.e.e.e.e.e.q.M p g i > : 1 2 i s Q 8.=.t.p.*.7.! p p p p i > : : : : 1 2 2 2 2 1 : : : : G e.e.e.e.e.e.e.e.e.e.e.e.e.e.e.e.e.",
"e.e.e.e.e.e.e.t.h s ^ v 2 : : : 1 2 i p s c z d p p p p i 2 : : : : : 2 p p p p p p 2 : : : y t.e.e.e.e.e.e.e.e.e.e.e.e.e.e.e.e.",
"e.e.e.e.e.e.e.*.d v / ^ g 1 : : : : > 1 2 i i i i i 2 1 : : : : : > i p p p p p p p p 1 : : : { e.e.e.e.e.e.e.e.e.e.e.e.e.e.e.e.",
"e.e.e.e.e.w.f.%.f C ( ( V i 1 : : : : : : : > > > : : : : : : : 1 i p s l C v p p p p i : : : G e.e.e.e.e.e.e.e.e.e.e.e.e.e.e.e.",
"e.e.e.e.e.w.f.=.v / / ( / N s 1 : : : : : : : : : : : : : : 1 2 p s v ^ / ( C p p p i i : : : u q.e.e.e.e.e.e.e.e.e.e.e.e.e.e.e.",
"e.e.e.e.e.e.f.*.B ( ( ( / C v p 2 1 : : : : : : : : : : > 2 p g b ^ ( ( ( ( ^ s p p p 2 : : : 5 *.d.e.e.e.e.e.e.e.e.e.e.e.e.e.e.",
"e.e.e.e.e.e.e.t.~ ^ ^ ^ V v p p i i 2 1 : : : : : : > 2 s k N / ( ( ( ( ( ( ^ p p p i 1 : : : , O.e.e.e.e.e.e.e.e.e.e.e.e.e.e.e.",
"e.e.e.e.e.e.w.p.M s b ^ s b p p p p p i 2 2 1 1 i p k b ^ / ( / ( ( ( ( ( / b p p p i : : : : , { d.e.e.e.e.e.e.e.e.e.e.e.e.e.e.",
"e.e.e.e.e.e.e.e.E p g b p s p p p p i i i i p p p p g v b N b ^ ( ( ( ( ( V p p p i : : : : : > [ d.e.e.e.e.e.e.e.e.e.e.e.e.e.e.",
"e.e.e.e.e.e.w.f.8.p p p p p p p p p p i 2 2 2 2 i p i p p p s C ( ( ( ^ b s p p p 1 : : : : : : { d.e.e.e.e.e.e.e.e.e.e.e.e.e.e.",
"e.e.e.e.e.e.w.f.=.d p p p p p p p i p p p p i i i p p i p p g ^ C N v s p p p p 1 : : : : : : , X.d.e.e.e.e.e.e.e.e.e.e.e.e.e.e.",
"e.e.e.e.e.e.e.e.q.Q p p p p p p p p p p i p i i i p p p p p p s p p p p p p i > : : : : : : : 5 &.e.e.e.e.e.e.e.e.e.e.e.e.e.e.e.",
"e.e.e.e.e.e.e.e.e.6.p p p p p p p p p p i 2 2 > : > 1 1 2 i i i p p p p 2 1 : : : : : : : : : u p.e.e.e.e.e.e.e.e.e.e.e.e.e.e.e.",
"e.e.e.e.e.e.e.e.d.p.n p p p p p p p p p p p i 2 1 : : : : : > > > > > : : : : : : : : : : : : Y e.e.e.e.e.e.e.e.e.e.e.e.e.e.e.e.",
"e.e.e.e.e.e.e.e.e.d.7.s p p p p p p p p p p p i i i 1 1 : : : : : : : : : : : : : : : : : > 6 %.e.e.e.e.e.e.e.e.e.e.e.e.e.e.e.e.",
"e.e.e.e.e.e.e.e.e.e.e._ p p p p p p p p p p p p p p p p i 2 2 1 > > : : : : : : : > 1 1 2 i _ e.e.e.e.e.e.e.e.e.e.e.e.e.e.e.e.e.",
"e.e.e.e.e.e.e.e.e.e.w.p.R p p p p p p p p p p p p p p p p p i i p i i i i 2 2 i i p i p p m p.w.e.e.e.e.e.e.e.e.e.e.e.e.e.e.e.e.",
"e.e.e.e.e.e.e.e.e.e.e.e.p.R i p p p p p p p p p p p p p p p p p p p p p p p p p p p p p n *.w.e.e.e.e.e.e.e.e.e.e.e.e.e.e.e.e.e.",
"e.e.e.e.e.e.e.e.e.e.e.e.e.p._ s p p p p p p i p p p p p p p p p p p p p p p p p p p p R *.w.e.e.e.e.e.e.e.e.e.e.e.e.e.e.e.e.e.e.",
"e.e.e.e.e.e.e.e.e.e.e.e.e.e.q.7.n p p i p p p p p p p p p p p p p p p p p p p p i z ' q.e.e.e.e.e.e.e.e.e.e.e.e.e.e.e.e.e.e.e.e.",
"e.e.e.e.e.e.e.e.e.e.e.e.e.e.e.e.p.9.m g p p p i p p i p p p p p p p p p p p s M ' t.e.e.e.e.e.e.e.e.e.e.e.e.e.e.e.e.e.e.e.e.e.e.",
"e.e.e.e.e.e.e.e.e.e.e.e.e.e.e.e.e.d.q.+.` Q a i p p p p p p p p p s d z 7 t 3.q.e.d.e.e.e.e.e.e.e.e.e.e.e.e.e.e.e.e.e.e.e.e.e.e.",
"e.e.e.e.e.e.e.e.e.e.e.e.e.e.e.e.e.e.e.e.e.1.e q w T ' ` ` ` ] 9.6.+.*. .r r A 4.q.e.e.e.e.e.e.e.e.e.e.e.e.e.e.e.e.e.e.e.e.e.e.e.",
"e.e.e.e.e.e.e.e.e.e.e.e.e.e.e.e.e.e.e.e.4.r Z r r D r.f.f.f.f.f.d.d.q.D r r r r K u.e.e.e.e.e.e.e.e.e.e.e.e.e.e.e.e.e.e.e.e.e.e.",
"e.e.e.e.e.e.e.e.e.e.e.e.e.e.e.e.e.e.w. .Z L 4.r >.A P a.f.e.e.e.w.w.4.r 1.S P 5.S P i.e.e.e.e.e.e.e.e.e.e.e.e.e.e.e.e.e.e.e.e.e.",
"e.e.e.e.e.e.e.e.e.e.e.e.e.e.e.e.e.e.i.D ,.q...Z r.$.D 4.e.e.e.e.e.u.S L e.>.D q.p.5...e.e.e.e.e.e.e.e.e.e.e.e.e.e.e.e.e.e.e.e.e.",
"e.e.e.e.e.e.e.e.e.e.e.e.e.e.e.e.e.w.i.#.e.d.r.P u.e.u.#.e.e.e.e.e.#.K p.d.$.I 0.d.e.e.e.e.e.e.e.e.e.e.e.e.e.e.e.e.e.e.e.e.e.e.e.",
"e.e.e.e.e.e.e.e.e.e.e.e.e.e.e.e.e.e.e.e.e.e.q.r.e.e.e.e.e.e.e.e.e.0.0.e.e.e.u.e.e.e.e.e.e.e.e.e.e.e.e.e.e.e.e.e.e.e.e.e.e.e.e.e.",
"e.e.e.e.e.e.e.e.e.e.e.e.e.e.e.e.e.e.e.e.e.e.e.e.e.e.e.e.e.e.e.e.e.e.e.e.e.e.e.e.e.e.e.e.e.e.e.e.e.e.e.e.e.e.e.e.e.e.e.e.e.e.e.e.",
"e.e.e.e.e.e.e.e.e.e.e.e.e.e.e.e.e.e.e.e.e.e.e.e.e.e.e.e.e.e.e.e.e.e.e.e.e.e.e.e.e.e.e.e.e.e.e.e.e.e.e.e.e.e.e.e.e.e.e.e.e.e.e.e.",
"e.e.e.e.e.e.e.e.e.e.e.e.e.e.e.e.e.e.e.e.e.e.e.e.e.e.e.e.e.e.e.e.e.e.e.e.e.e.e.e.e.e.e.e.e.e.e.e.e.e.e.e.e.e.e.e.e.e.e.e.e.e.e.e.",
"e.e.e.e.e.e.e.e.e.e.e.e.e.e.e.e.e.e.e.e.e.e.e.e.e.e.e.e.e.e.e.e.e.e.e.e.e.e.e.e.e.e.e.e.e.e.e.e.e.e.e.e.e.e.e.e.e.e.e.e.e.e.e.e.",
"e.e.e.e.e.e.e.e.e.e.e.e.e.e.e.e.e.e.e.e.e.e.e.e.e.e.e.e.e.e.e.e.e.e.e.e.e.e.e.e.e.e.e.e.e.e.e.e.e.e.e.e.e.e.e.e.e.e.e.e.e.e.e.e.",
"e.e.e.e.e.e.e.e.e.e.e.e.e.e.e.e.e.e.e.e.e.e.e.e.e.e.e.e.e.e.e.e.e.e.e.e.e.e.e.e.e.e.q.e.e.e.e.e.e.e.e.e.e.e.e.e.e.e.e.e.e.e.e.e.",
"e.e.e.e.e.e.e.e.e.e.e.e.e.e.e.e.e.e.e.e.e.e.e.e.e.e.e.e.e.e.e.e.e.e.e.e.e.e.e.e.e.e.e.e.e.e.e.e.e.e.e.e.e.e.e.e.e.e.e.e.e.e.e.e."
};
