/* XPM */
static char *result[] = {
/* columns rows colors chars-per-pixel */
"64 64 113 2 ",
"   c #99BADD",
".  c #98BADD",
"X  c #9ABADD",
"o  c #9CBBDC",
"O  c #A4BDD7",
"+  c #ABBFD3",
"@  c #AEBFD2",
"#  c #ACBFD3",
"$  c #A5BDD7",
"%  c #9DBBDC",
"&  c #9DBBDB",
"*  c #A9BED5",
"=  c #B2C1CF",
"-  c #B7C1CD",
";  c #B6C1CD",
":  c #B0C0D1",
">  c #9BBBDC",
",  c #BAC2CB",
"<  c #C2C4C5",
"1  c gray77",
"2  c #BBC2CA",
"3  c #AABED4",
"4  c #A8BED5",
"5  c #C3C4C5",
"6  c #C5C4C4",
"7  c #B8C1CC",
"8  c #A4BDD8",
"9  c #B1C0D0",
"0  c #C2C4C6",
"q  c #BFC3C7",
"w  c #A7BED6",
"e  c #AFC0D1",
"r  c #BEC3C8",
"t  c #A1BCD9",
"y  c #A0BCD9",
"u  c #A6BED6",
"i  c #C1C3C6",
"p  c #B4C1CE",
"a  c #C0C3C7",
"s  c #B9C2CB",
"d  c #B7C1CC",
"f  c #9ABADC",
"g  c #C1C4C6",
"h  c #9FBCDA",
"j  c #ADBFD2",
"k  c #BAC2CA",
"l  c #A2BDD8",
"z  c #B2C0CF",
"x  c #C3C4C4",
"c  c #9EBBDB",
"v  c #BDC3C8",
"b  c #B8C1CB",
"n  c #B1C0CF",
"m  c #BCC2C9",
"M  c #B5C1CE",
"N  c #AEC0D2",
"B  c #98BADE",
"V  c #B0C0D0",
"C  c #A7BDD5",
"Z  c #B3C0CE",
"A  c #9CBBDB",
"S  c #B0BFCF",
"D  c #A7BDD4",
"F  c #A8BED4",
"G  c #9DBBDA",
"H  c #BCC2C8",
"J  c #A5BDD6",
"K  c #A9BDD3",
"L  c #BBC2C9",
"P  c #B1BFCE",
"I  c #C2C3C5",
"U  c #A8BDD4",
"Y  c #9BBADC",
"T  c #ADBED1",
"R  c #C0C3C6",
"E  c #BEC2C7",
"W  c #AABDD2",
"Q  c #A2BCD7",
"!  c #B2C0CE",
"~  c #BDC2C7",
"^  c #B7C0CA",
"/  c #9FBBD9",
"(  c #B7C1CA",
")  c #A0BBD8",
"_  c #ABBED2",
"`  c #A6BDD5",
"'  c #AEBFD0",
"]  c #9CBADB",
"[  c #B9C1CA",
"{  c #A8BDD3",
"}  c #A4BCD6",
"|  c #B8C1CA",
" . c #B2BFCE",
".. c #BDC2C8",
"X. c #B5C0CC",
"o. c #BFC3C6",
"O. c #9EBBD9",
"+. c #AABED2",
"@. c #AFBFCF",
"#. c #AEBED0",
"$. c #ACBED1",
"%. c #C1C3C5",
"&. c #B7C1CB",
"*. c #AABED3",
"=. c #A5BDD5",
"-. c #B6C1CC",
";. c #9BBADB",
":. c #A3BCD6",
">. c #ABBED1",
",. c #ADBED0",
"<. c #9EBBDA",
"1. c #A1BCD8",
"2. c white",
/* pixels */
"                                                                                                                                ",
"                                                                                                                                ",
"                                                                                                                                ",
"                                                                                                                                ",
"                                                                                                                                ",
"                                                                                                                                ",
"                                                                                                                                ",
"                                                                                                                                ",
"                                              . . . . .           .   X X   .                                                   ",
"                                            o O + @ # $ %       & * = - ; : $ >                                                 ",
"                                        X * , < 1 1 1 < 2 3 o 4 2 5 6 6 6 6 < 7 8                                               ",
"                                      > 9 5 6 1 1 1 1 1 6 5 2 0 6 1 1 1 1 1 1 6 q w                                             ",
"                                . .   e 1 1 1 1 1 1 1 1 1 1 1 1 1 1 1 1 1 1 1 1 6 r t                                           ",
"                            X y u 4 # i 1 1 1 1 1 1 1 1 1 1 1 1 1 1 1 1 1 1 1 1 1 6 p X X > X   .                               ",
"                        X $ ; a 5 1 1 1 1 1 1 1 1 1 1 1 1 1 1 1 1 1 1 1 1 1 1 1 1 1 i p ; s d e O f                             ",
"                      X @ i 6 1 1 1 1 1 1 1 1 1 1 1 1 1 1 1 1 1 1 1 1 1 1 1 1 1 1 1 1 6 6 6 6 1 g p h                           ",
"                      j 5 1 1 1 1 1 1 1 1 1 1 1 1 1 1 1 1 1 1 1 1 1 1 1 1 1 1 1 1 1 1 1 1 1 1 1 1 1 k y                         ",
"                    l a 1 1 1 1 1 1 1 1 1 1 1 1 1 1 1 1 1 1 1 1 1 1 1 1 1 1 1 1 1 1 1 1 1 1 1 1 1 1 6 d o                       ",
"                    z 6 1 1 1 1 1 1 1 1 1 1 1 1 1 1 1 1 1 1 1 1 1 1 1 1 1 1 1 1 1 1 1 1 1 1 1 1 1 1 1 x 3 .                     ",
"                . c v 1 1 1 1 1 1 1 1 1 1 1 1 1 1 1 1 1 1 1 1 1 1 1 1 1 1 1 1 1 1 1 1 1 1 1 1 1 1 1 1 6 b >                     ",
"              X $ d 5 1 1 1 1 1 1 1 1 1 1 1 1 1 1 1 1 1 1 1 1 1 1 1 1 1 1 1 1 1 1 1 1 1 1 1 1 1 1 1 1 1 < 9 h                   ",
"            & n 0 6 1 1 1 1 1 1 1 1 1 1 1 1 1 1 1 1 1 1 1 1 1 1 1 1 1 1 1 1 1 1 1 1 1 1 1 1 1 1 1 1 1 1 1 1 m O                 ",
"          o M 1 1 1 1 1 1 1 1 1 1 1 1 1 1 1 1 1 1 1 1 1 1 1 1 1 1 1 1 1 1 1 1 1 1 1 1 1 1 1 1 1 1 1 1 1 1 1 6 2 c               ",
"          N 1 1 1 1 1 1 1 1 1 1 1 1 1 1 1 1 1 1 1 1 1 1 1 1 1 1 1 1 1 1 1 1 1 1 1 1 1 1 1 1 1 1 1 1 1 1 1 1 1 1 + B             ",
"        h r 1 1 1 1 1 1 1 1 1 1 1 1 1 1 1 1 1 1 1 1 1 1 1 1 1 1 1 1 1 1 1 1 1 1 1 1 1 1 1 1 1 1 1 1 1 1 1 1 1 1 m * c           ",
"      . * 1 1 1 1 1 1 1 1 1 1 1 1 1 1 1 1 1 1 1 1 1 1 1 1 1 1 1 1 1 1 1 1 1 1 1 1 1 1 1 1 1 1 1 1 1 1 1 1 1 1 1 1 x m 4         ",
"        V 6 1 1 1 1 1 1 1 1 1 1 1 1 1 1 1 1 1 1 1 1 1 1 1 1 1 1 1 1 1 1 1 1 1 1 1 1 1 1 1 1 1 1 1 1 1 1 1 1 1 1 1 1 6 i C       ",
"        Z 6 1 1 1 1 1 1 1 1 1 1 1 1 1 1 1 1 1 1 1 1 1 1 1 1 1 1 1 1 1 1 1 1 1 1 1 1 1 1 1 1 1 1 1 1 1 1 1 1 1 1 1 1 1 6 k A     ",
"        S 6 1 1 1 1 1 1 1 1 1 1 1 1 1 1 1 1 1 1 1 1 1 1 1 1 1 1 1 1 1 1 1 1 1 1 1 1 1 1 1 1 1 1 1 1 1 1 1 1 1 1 1 1 1 1 < O .   ",
"      . D x 1 1 1 1 1 1 1 1 1 1 1 1 1 1 1 1 1 1 1 1 1 1 1 1 1 1 1 1 1 1 1 1 1 1 1 1 1 1 1 1 1 1 1 1 1 1 1 1 1 1 1 1 1 1 1 F .   ",
"        G H 6 1 1 1 1 1 1 1 1 1 1 1 1 1 1 1 1 1 1 1 1 1 1 1 1 1 1 1 1 1 1 1 1 1 1 1 1 1 1 1 1 1 1 1 1 1 1 1 1 1 1 1 1 1 < J .   ",
"          K 5 1 1 1 1 1 1 1 1 1 1 1 1 1 1 1 1 1 1 1 1 1 1 1 1 1 1 1 1 1 1 1 1 1 1 1 1 1 1 1 1 1 1 1 1 1 1 1 1 1 1 1 1 6 L G     ",
"          f P x 1 1 1 1 1 1 1 1 1 1 1 1 1 1 1 1 1 1 1 1 1 1 1 1 1 1 1 1 1 1 1 1 1 1 1 1 1 1 1 1 1 1 1 1 1 1 1 1 1 1 6 I U       ",
"            Y T R 6 1 1 1 1 1 1 1 1 1 1 1 1 1 1 1 1 1 1 1 1 1 1 1 1 1 1 1 1 1 1 1 1 1 1 1 1 1 1 1 1 1 1 1 1 1 1 1 1 E W f       ",
"                Q ! ~ x 1 1 1 1 1 1 1 1 1 1 1 1 1 1 1 1 1 1 1 1 1 1 1 1 1 1 1 1 1 1 1 1 1 1 1 1 1 1 1 1 1 1 1 1 ^ K /           ",
"                    G ( 6 1 1 1 1 1 1 1 1 1 1 1 1 1 1 1 1 1 1 1 1 1 1 1 1 1 1 1 1 1 1 1 1 1 1 1 1 1 1 1 1 1 1 q ) B             ",
"                    . S 6 1 1 1 1 1 1 1 1 1 1 1 1 1 1 1 1 1 1 1 1 1 1 1 1 1 1 1 1 1 1 1 1 1 1 1 1 1 1 1 1 1 5 _                 ",
"                    . ` 5 1 1 1 1 1 1 1 1 1 1 1 1 1 1 1 1 1 1 1 1 1 1 1 1 1 1 1 1 1 1 1 1 1 1 1 1 1 1 1 6 < ' f                 ",
"                      ] [ 6 1 1 1 1 1 1 1 1 1 1 1 1 1 1 1 1 1 1 1 1 1 1 1 1 1 1 1 1 1 1 1 1 1 1 6 6 1 5 L { f                   ",
"                        } R 1 1 1 1 1 1 1 1 1 1 1 1 1 1 1 1 1 1 1 1 1 1 1 1 1 1 1 1 1 1 1 1 1 1 |  .' ` G                       ",
"                          D q 6 1 1 1 1 1 1 1 ~ R 1 1 1 1 1 1 1 1 1 1 1 1 1 1 1 1 1 1 1 1 1 6 ../ . . .                         ",
"                            Q X.i 1 6 6 1 o.P O.K < 1 1 1 1 1 1 1 1 1 1 1 1 1 1 1 1 1 1 1 1 i D                                 ",
"                              f Q +.@.#.K )     f $.%.6 1 1 1 1 1 1 1 &.X.5 6 1 1 1 1 1 6 R *.                                  ",
"                                  . . . .           =.| I 1 6 1 x ~ T ] Y +.L I 1 1 1 R -.}                                     ",
"                                                      ;.:.>.@.,.D <.        ] } W $.K 1.f                                       ",
"                                                        . . . . .             . . . .                                           ",
"                                                                                                                                ",
"                                                                                                                                ",
"                                                                                                                                ",
"                                                                                                                                ",
"                                                                                                                                ",
"                                                                                                                                ",
"                                                                                                                                ",
"                                                                                                                                ",
"                                                                                                                                ",
"                                                                                                                                ",
"                                                                                                                                ",
"                                                                                                                                ",
"                                                                                                                                ",
"                                                                                                                                ",
"                                                                                                                                ",
"                                                                                                                                ",
"                                                                                                                                ",
"                                                                                                                                "
};
