/* XPM */
static char *result[] = {
/* columns rows colors chars-per-pixel */
"64 64 192 2 ",
"   c #36231E",
".  c #39231F",
"X  c #2E2423",
"o  c #342523",
"O  c #3B2622",
"+  c #332826",
"@  c #3D2925",
"#  c #352B2A",
"$  c #3B2D2B",
"%  c #3B302F",
"&  c #36302F",
"*  c #342F30",
"=  c #3B3333",
"-  c #3D3739",
";  c #3E3A3D",
":  c #373336",
">  c #422A26",
",  c #452D29",
"<  c #492E2A",
"1  c #43322D",
"2  c #4E322D",
"3  c #51342E",
"4  c #553A2D",
"5  c #5A3B2E",
"6  c #423535",
"7  c #423936",
"8  c #423B3C",
"9  c #4A3E3B",
"0  c #483A36",
"q  c #513631",
"w  c #543933",
"e  c #5A3C33",
"r  c #5A3E38",
"t  c #603F32",
"y  c #4D423D",
"u  c #5D4334",
"i  c #55433A",
"p  c #5C433B",
"a  c #5F4A3E",
"s  c #5C5038",
"d  c #6A452F",
"f  c #61422E",
"g  c #644332",
"h  c #6B4632",
"j  c #6D4A34",
"k  c #61483E",
"l  c #6B5339",
"z  c #74663E",
"x  c #3F3D41",
"c  c #423E41",
"v  c #454144",
"b  c #4A4445",
"n  c #47454A",
"m  c #4B464A",
"M  c #47484E",
"N  c #4B494C",
"B  c #4E4847",
"V  c #504944",
"C  c #594A44",
"Z  c #524C4C",
"A  c #594E4A",
"S  c #544741",
"D  c #5A524A",
"F  c #55514B",
"G  c #4C4D53",
"H  c #474A52",
"J  c #524F52",
"K  c #4E535B",
"L  c #545255",
"P  c #5A5251",
"I  c #53555C",
"U  c #5D5A5C",
"Y  c #5A5659",
"T  c #644A42",
"R  c #63574D",
"E  c #6A594C",
"W  c #625A56",
"Q  c #735950",
"!  c #6D615C",
"~  c #7A6056",
"^  c #7B645A",
"/  c #72655E",
"(  c #555A62",
")  c #5C5E64",
"_  c #5A5F68",
"`  c #565D68",
"'  c #5C636D",
"]  c #666568",
"[  c #7C6C62",
"{  c #7D7169",
"}  c #626771",
"|  c #656A74",
" . c #6A6E76",
".. c #656D79",
"X. c #686E79",
"o. c #6B727C",
"O. c #67717F",
"+. c #757479",
"@. c #8D6716",
"#. c #A57F1E",
"$. c #82685D",
"%. c #826E62",
"&. c #84756C",
"*. c #8A796D",
"=. c #907669",
"-. c #947C6F",
";. c #927E71",
":. c #8C7B71",
">. c #AA8521",
",. c #B89226",
"<. c #DCAD21",
"1. c #DFB123",
"2. c #D7AB33",
"3. c #E7B824",
"4. c #F2C42B",
"5. c #B49643",
"6. c #8F837C",
"7. c #988679",
"8. c #A38B7C",
"9. c #A28B77",
"0. c #B19D7F",
"q. c #CEB068",
"w. c #EEC142",
"e. c #F1CA5F",
"r. c #6B7582",
"t. c #6F7886",
"y. c #727C89",
"u. c #777B85",
"i. c #79808C",
"p. c #75808D",
"a. c #7A8593",
"s. c #7E8C9D",
"d. c #798696",
"f. c #7F97B2",
"g. c #9D8D83",
"h. c #828D9B",
"j. c #AA9483",
"k. c #A99688",
"l. c #B09989",
"z. c #BBA492",
"x. c #BBA594",
"c. c #8492A3",
"v. c #8995A5",
"b. c #8596A9",
"n. c #8997A8",
"m. c #879AAF",
"M. c #8B9AAD",
"N. c #8C98A6",
"B. c #8B9EB3",
"V. c #889DB7",
"C. c #919FB0",
"Z. c #8DA0B6",
"A. c #8EA3BA",
"S. c #92A5BC",
"D. c #94A9BF",
"F. c #90A2B5",
"G. c #C6AE9C",
"H. c #CBB6A6",
"J. c #D5BDAA",
"K. c #DAC2AF",
"L. c #DCC4B2",
"P. c #E4CCB8",
"I. c #E8D0BD",
"U. c #F9DEBB",
"Y. c #E8CBA4",
"T. c #F6D592",
"R. c #8DA6C3",
"E. c #8DA8C6",
"W. c #8EABCA",
"Q. c #8AA7C8",
"!. c #90A7C1",
"~. c #93AAC4",
"^. c #99AEC4",
"/. c #92AECB",
"(. c #98AFC8",
"). c #95B0CE",
"_. c #9AB2CC",
"`. c #9AB0C6",
"'. c #95B3D3",
"]. c #99B6D5",
"[. c #98B7D8",
"{. c #97B8DB",
"}. c #99BADD",
"|. c #9AB8D7",
" X c #9CBDE1",
".X c #9FC0E4",
"XX c #A0C0E4",
"oX c #ECD4C2",
"OX c #F5DCC6",
"+X c #F5DDC9",
"@X c #F8DFCB",
"#X c #F0D7C4",
/* pixels */
"}.}.}.}.}.}.}.}.}.}.}.}.}.}.}.{.{. X X{.}.}.}.}.}.}.}.}.}.}.}.}.}.}.}.}.}.}.}.}. X{.{.{. X{.{.{. X X{.{.}.}.}.}.}.}.}.}.}.}.}.}.",
"}.}.}.}.}.}.}.}.}.}.}.}.}.}.}.~.b.!./. X X}.|.}.}.}.}.}.}.}.}.}.}.}.}.}.}.}.}.}.{.{. X{.{. X X{.{.{.{. X}.{.}.}.}.}.}.}.}.}.{.}.",
"}.}.}.}.}.}.}.}.}.}.}.{.{.}.}.D.G x _ m.W.{. X}.}.}.}.}.}.}.}.}.}.}.}.}.}.}.}.}.{. X}.}.{.{. X X X{. X{.{. X{. X}.{.}.}.}.}. X{.",
"}.}.}.}.}.}.}.}.}.}. X X X}. X/.} $ , = n h./.{. X}.}.}.}.}.}.}.}.}.}.}.}.}.}.}. X{.}.}. X{.{.{.{.{. X{.{. X{.{.{. X}.}.}.}.}.}.",
"}.}.}.}.}.}.}.}.}.{.W.W./.{.}.}.B.m , < < 9 Z y.E.{. X}.}.}.}.}.}.}.}.}.}.}.}.}.}.}.}.}.}.}.}.}.}.}.{. X{.{. X{.}.}.}.}.}.}.}.}.",
"}.}.}.}.}.}.}.}.}.E.' ( ..s.D.]./.c @ q q 2 q 9 b h./.}.}.}.}.}. X}.}.}.}.}.}.}.}.}.}.}.}.}.}.}.}.}. X[.{. X{.{.}.}.}.}.}.}.}.}.",
"}.}.}.}.}.}.}.}.}.'.s.I - 8 b I t.: . > < 2 2 q e S L b.).}. X}.{.{.}.}.}.{.}.}.}.}.{.}.{. X}.}.}. X[. X{.{. X X}.}.}.}.}.}.}.}.",
"}.}.}.}.}.}.}.}.}.}.}.V.( ; O O : o O O O > > 2 5 g g A | R.}.}.{. X}.}.}.}.}.}.}.{. X{. X{.}.}.}.}. X[. X{.{.{.}.}.}.}.}.}.}.}.",
"}.}.}.}.}.}.}.}.}.}. X X/...c @ . O O O O X o O , 2 t j T Y m.[.}.}.}.}.}.}.}.}.}.}.}.}. X{.}.}.}.}.}.}.}.}.}.}.}.}.}.}.}.}.}.}.",
"}.}.}.}.}.{.{. X X}.}.|.'.V.( # . O O O O   X X O > 2 e j t P h./.}.}.}.}.}.}.}.}.}.}.}.{.}.}.}.}.}.}.}.}.}.}.}.}.}.}.}.}.}.}.}.",
"}.}.}.}. X X X'./.~.B.y.....N # O O . > > > O o X X O , q j j T r.W. X{.}.}.}.}.}.}.}.}. X{.}.}.}.}.}.}.{.}.}.}.}.}.}.}.}.}.}.}.",
"}.}.}. X'.Q.B.r.G H 8 = % > # o . O O > , < > O O X X O > 2 t t C r./. X}.}.}.}.{.}.}.}.{. X{.}.}.}.}.}.}.}.}.}.}.}.}.}.}.}.}.}.",
"}.}.}.}.B.} G H H G J c 6 @ . O O > < , > < 2 < O O o X o > < t j A h.}. X}.}.}.}.}.}.}.}.{.}.}.}.}.}.}.}.}.}.}.}.}.}.}.}.}.}.}.",
"}.}.}.}.].S.!.W.)._.(.h.J * o O O > 2 2 < > > 2 < > O O X o > < g j Y !.}.}.}.}.}.}.}.}.{. X}.}.}.}.}.}.}.}.}.}.}.}.}.}.}.}.}.}.",
"}.}.}.}.{. XXXXX}.).!.u.x # $ o O O , 2 2 2 < < 2 2 , O O X o @ q h k } /. X X}.}.}.}.}.}.}.}.}.}.}.}.}.}.}.}.}.}.}.}.}.}.}.}.}.",
"}.}.}.}. X X[.(.y.c c % o O O > > O > , < 2 2 2 3 3 < > O o X o > e j B V. X}.}. X{.}.}.}.}.}.}.}.}.{.}.}.}.}.}.}.}.}.}.}.}.}.}.",
"}.}.}.}.|.!.r.c = O   . . O @ > < < < < > < 2 2 2 3 2 < O O . X + 2 d k o.'.}.}.}.}.}.}.}.}.}.}.}.}.}.}.}.}.}.}.}.}.}.}.}.}.}.}.",
"}.}.}.|.s.c = $ + O   O O O . @ < 2 2 2 2 < 2 2 3 2 < < > O .   o > 5 j N W..X{.}.}.}.}.}.}.}.}.}.}.}.}.}.}.}.}.}.{.}.}.}.}.}.}.",
"}.}.}.(..._ X.X.} G c c # o . O > > < 2 2 2 2 2 2 2 < > > O O . X O 4 d S Z.}.}.}.}.}.}.}.}.}.}.}.}.}.}.}.}.}.}.}.}.}.}.}.}.}.}.",
"}.}.}.'.).[.'.'.'.'./.d.* X O O . > > > < 2 2 q 2 2 2 < > > O O o X < d k  .'.}.}.}.}.}.}.}.}.}.}.}.{.}.}.}.}.}.}.}.}.}.}.}.}.}.",
"{.{.{. X X X X X XW.y.c o O . @ O > < < 2 2 2 2 3 2 2 2 < > O O o X > g g v E.}.}.}.}.}.}.}.}.}.}. X}. X}.}.}.}.}.}.}.{.}.{.}.}.",
" X X{.}.}.{.{.}.R.( $ O O . . @ O > > < 2 2 2 2 2 3 3 2 < > O O . X O w h 7 E..X}.}.}.}.}.}.}.}. XW.A./.{.}.}.}.}.}.}. X{. X}.}.",
"{. X}.}.{.{. XA.N o o > $ $ # o . O O > > < 2 2 2 2 2 2 < > O O o X o 4 h i D.}.{.}.}.}.}.}.}.}.V.K c G W. X}.}.}.}.}.{.}.}.}.}.",
"{.{.}.}.}. X'.r.x x N } r...c X   > , < < < 2 2 3 2 3 3 2 < > O o o o 2 h i M.}.}.}.}.}.}.}.}.A.K @   c V.XX}.}.}.}.}.}.}.}.}.}.",
" X X{.{.{. X'.V.~.~.W.'.[.b.c o O O > < < 2 < 2 2 2 3 2 < < O > O o o 1 d u a.|.}.}.}.}.}.].m.Z < @ O c m.}.{.}.}.}.}.}.}.}.}.}.",
"{.{.{. X X{. X[. XXX XXXS.G O O O . > > , < 2 2 2 3 3 3 2 < > O . o o 1 t g ] /.}.}. X{.R.o.y 4 > O O c S. X}.}.}.}.}.}.}.}.}.}.",
" X{. X{. X{.[. X{.{. XV.c O O O . @ > < 2 2 2 2 2 2 2 2 < 2 < > O . o , e g L W..X'.(.a.v 4 5 > O O O c Q.XX}.}.}.}.}.}.}.}.}.}.",
"{.{. X{.{.{. X[.}. X'.' o . O . O . O > > > > 2 3 3 2 3 q 2 < < > o X @ 5 h c m.F. .b i f 5 < . O O c h.'. X}.}.}.}.}.}.}.}.}.}.",
"{. X X{.{. X[. X}.}.B.c $ 6 c 6 O o O > > 2 2 2 2 2 q 2 2 q < < > o o o 4 j $ - w u d d 3 > O O O % ' '.}.}.}.}.}.}.}.}.}.}.}.}.",
" X{.{. X}.{. X{. X].h.} y.n.M.X.* X O > < 2 2 < 2 3 2 2 2 2 < > O . X o 3 h 1 4 h t 5 , . O O @ 6 ` R. X}.}.}.}.}.}.}.}.}.}.}.}.",
"{.{.{.{.}.}.}. X{.}.'.).[. X~.G # O O @ > > > < 2 2 2 q 2 2 2 < > . X o 1 f 4 1 < > O O . > @ c X.~.'./.[. X}.{.}.}.}.}.}.}.}.}.",
"{. X X{.}.}.}.{.}.}. X{. XE.I O . . . O O > < 2 2 < 2 2 q 2 2 < > O o o > 5 f @ O . O . O O = } n.N.u.+.v.Q.'. X}.}.}.}.}.}.}.}.",
"}.}.}.}.}.}.}.}.}.}.}.}.}.n.c 6 6 % o O . > > > , < 2 3 2 2 2 < > O o X o 3 f 2 o . O O + + & V ] 6.j.7.{ U a.~. X X}.}.}.}.}.}.",
"}.}.}.}.}.}.}.}.}.}.}.}.|.~.c.v.c.| * o O O @ < < 2 2 < 2 2 q 2 < > O o o > 5 f $ o O % & b [ z.L.I.H.&.{ 8.{ U B./.}.}.}.}.}.}.",
"}.}.}.}.}.}.}.}.}.}.}.}.}.}.[. X/._ $ o O O O > > > > , q 2 2 2 2 > O O o o 1 t w + # A *.l.x.J.+X+XK.6.V E q.5.z D n.}.}.}.}.}.",
"}.}.}.}.}.}.}.}.}.}.}.}.}.}.}.{.h.8   . . O O O > < 2 2 2 2 2 q 2 1 > . o o > 1 $ + 9 R [ 7.z.K.#X+X+XoXl.5.4.4.3.,.l b.}.}.}.}.",
"}.}.}.}.}.}.}.}.}.}.}.}.}.{. XW.} c c c c $ o @ > < < < < < < 2 q < @ o o o @ , $ $ , 1 # i ;.G.P.+X@XU.e.4.3.<.1.<.>.W ). X}.}.",
"}.}.}.}.}.}.}.}.}.}.}.}.}.}. X[.(.^.).).d.x o o . > . > , < q 2 2 < O X o @ < 2 2 2 6 $ v ;.z.G.L.OX+XT.4.2.,.>.>.>.@.s D. X{.}.",
"}.}.}.}.}.}.}.}.}.}.}.}.}.}.}.}. X}.XX'.G 6 c c % . . > < q q 2 3 < + o , 2 2 q 2 2 , y ;.j.l.z.K.#X+XU.Y.9.P D F y s F C.{.}.}.",
"}.}.}.}.}.}.}.}.}.}.}.}.}.}.}.}.}.}. X~.( y.C.L # @ O > < 2 2 2 q < , < 2 2 2 2 2 2 # 7 y 7 6 ! x.P.+XI.g.' Z.W.Q.W.D.F._.}.}.}.",
"}.}.}.}.}.}.}.}.}.}.}.}.}.}.}.}.}.}.}.|.).}./.c O O O O @ > , 2 3 < q 2 2 3 2 2 3 < $ , , @ * &.x.L.K.{ ) F. X X X X X}. X}.}.}.",
"}.}.}.}.}.}.}.}.}.}.}.}.}.}.}.}.}.}.}.}. X X/.G c Z n m ; = $ < 3 2 < 3 3 2 2 3 2 2 < 2 2 , b j.l.6.W p.A. X}.}.{.{.{.}.{.}.{.}.",
"}.}.}.}.}.}.}.}.}.}.}.}.}.}.}.}.}.}.}.}.}.}.{.(.(.^.^.h.; # , 2 2 2 q q q 2 2 q 2 2 2 < @ o S [ R ' A.{. X}.}.}.}.}.}.}.}.}.}.}.",
"}.}.}.}.}.}.}.}.}.}.}.}.}.}.}.}.}.|.}.}.}.}.}.XX X/.v.G $ < 2 q q 3 2 2 2 2 2 2 2 < @ $ n n c _ m.W.}. X}.}.}.}.}.}.}.}.}.}.}.}.",
"{. X X{.}.}.}.}.}.}.}.{.}.}.}.|.}. X X X X}.{./.B.I 6 , 2 3 2 2 2 2 2 3 2 2 2 < > # 8 ( B.).!.).}.}.}.}.}.}.}.}.}.}.}.}.}.}.}.}.",
"{.{.{. X}.}.}.}.}.}.}. X X X X X{.).W.Q.R.D.h.L b q 2 2 2 2 3 2 2 2 2 q 2 2 > @ O m h.W. X X X X}.}.}.}.}.}.}.}.}.}.}.}.}.}.}.}.",
" X{.{.{. X{. X{. X X[./.W.W./.~.C.u.] N b A R C 2 2 q 2 2 3 2 q q 2 3 2 2 > @ 6 K V. X X{.{.}.}.}.}.}.}.}.}.}.}.}.}.}.}.}.}.}.}.",
" X{. X{.{.{. X{.'.^.v. .J b A R ] [ %.%.^ T w q 3 3 2 3 2 2 2 2 2 2 2 < > O c ..!. X X{. X{.}.}.}.}.}.}.}.}.}.}.}.}.}.}.}.}.}.}.",
"{.{. X{. X{. X{.h.U W %.%.%.$.~ Q E T k r q 2 2 2 2 2 q 2 2 2 2 3 2 < @ o v d.W. X X}.}.{. X X{.}.}.}.}.}.}.}.}.}.}.}.}.}.}.}.}.",
" X{. X{.{.{. X!.Y %.Q r r r r e w q 3 < 2 2 q q q 2 3 2 q 2 2 q 2 < O o N m.{. X{.{.}.}. X{.{.{.}.}.}.}.}.}.}.}.}.}.}.}.}.}.}.}.",
" X}.{.}.{. X}.y./ 8.~ e 2 2 2 < 2 2 3 3 3 3 3 < < < < 2 q 3 q < , @ # N B.}.}.}.{.}.}.}.{.{.{. X}.}.}.}.}.}.}.}.}.}.}.}.}.}.}.}.",
"{.}.}.}. X XE.J 7.z.8.$.r 2 q 2 3 3 3 3 < < , 1 6 # # 2 < q 2 , O = ( ~. X}.}.{. X{.}.}.{. X{. X}.}.}.}.}.}.}.}.}.}.}.}.}.}.}.}.",
"{. X{.}.}. XC.W j.=.T r 2 2 2 q 2 < , 6 c c I i.X.- , 2 2 < > O v o.E. X}.}.}.{.{.}.}.}.{. X{.{.}.}.}.}.}.}.}.}.}.}.}.}.}.}.}.}.",
"}.{. X}. X'.u.&.j.$.T r 2 q q < , 6 c  .F.(.'.A.m , 2 < < @ O n h.'.}.{.{. X}. X}.}. X}.{. X{. X}.}.}.}.}.}.}.}.}.}.}.}.}.}.}.}.",
"}.}.}.{. XW.Y 7.l.;.~ r 2 2 < 6 G c.~.).}. XW.I $ < , @ O - K B.}.}.}.}.}.{.}.}.}.}.{.{.{.{.{.{.}.}.}.}.}.}.}.}.}.}.}.}.}.}.}.}.",
"}.}.}.{. X~.J 8.-.T r q 2 6 N y./.}.XX X}.].t.= @ @ O $ c y./.}.}.}.}.}.}.}.}.}.}.}.{. X X{. X X}.}.}.}.}.}.}.}.}.}.}.}.}.}.}.}.",
"{.{. X[.XX^.! -.Q e q r c ..!.[. X{.W.W.W.s.v o $ 7 v r.!.[.}.}.}.}.}.}.}.}.}.}.}.}.}.}.}.}.{.{.}.}.}.}.}.}.}.}.}.}.}.}.}.}.}.}.",
" X X[. X X~./ ;.-.$.A ) C.[. X X X/.r.r.` H M N _ c.E.'. X}.}.}.}.}.}.}.}.}.}.}.}.}.}.}.}.}. X{.}.}.}.}.}.}.}.}.}.}.}.}.}.}.}.}.",
"{.{.}.[. XS.W / P ( M.).}. X}.}. X}.'.E.K } A././.}. X}.}.}.}.}.}.}.}.}.}.}.}.}.}.}.}.{..X{.{.{.}..X}.}.}.}.}.}.}.}.}.}.}.}.}.}.",
"{. X}.}. X].B.n.V.W.|.XX{.}.}./.'.'.'.V.( s.}. X X X{.}.}.}.}.}.}.}.}.}.}.}.}.}.}.}.}.{.{.{..X{.{.{.}.}.}.}.}.}.}.}.}.}.}.}.}.}.",
"{.{. X{. X{. X X X X X{.}. X'.y.h.b.y.I K A.}.{.{.}.}.}.}.}.}.}.}.}.}.}.}.}.}.}..X{.{.{.}.}.}.}.{.{.{.{.}.}.}.}.}.}.}.}.}.}.{.}.",
" X{. X{.{.}.}.{.{.{.{.{.}.}. X].(.(.B.X.d.'.}.}.}.}.}.}.}.}.}.}.}.}.}.}.}.}.}.}.{.{.{..X}.}.}.}.{..X{..X}.}.}.}.}.}.}.}.}.}.}.}.",
"}.{.{.}. X{.{.{.{. X[. X[. X}. X}.|.^.D.'.}.}.}.}.}.}.}.}.}.}.}.}.}.}.}.}.}.}.}..X{.{.{.}.}.}.}.}.{.{.{.}.}.}.}.}.}.}.}.}.}.}.}.",
"}. X{.}.{.{. X X{.{. X[. X{. X[.}.}.{.{.}.}.}.}.}.}.}.}.}.}.}.}.}.}.}.}.}.}.}.}.{.}.{..X}.}.}.}.}.{.{..X}.{.}.}.}.}.}.}.}.}.}.}."
};
