/* XPM */
static char *result[] = {
/* columns rows colors chars-per-pixel */
"64 64 196 2 ",
"   c #5D1F12",
".  c #5D2619",
"X  c #5C261A",
"o  c #5B351D",
"O  c #642819",
"+  c #66291A",
"@  c #70311A",
"#  c #4E3527",
"$  c #4D3D27",
"%  c #53392C",
"&  c #5A3F31",
"*  c #622E26",
"=  c #653424",
"-  c #65332B",
";  c #6B3929",
":  c #783626",
">  c #7A392B",
",  c #673A34",
"<  c #683E3A",
"1  c #254E21",
"2  c #2C4C23",
"3  c #334C25",
"4  c #394A26",
"5  c #2A5224",
"6  c #2E5528",
"7  c #31542A",
"8  c #38562D",
"9  c #3A5036",
"0  c #3A6435",
"q  c #48472A",
"w  c #554027",
"e  c #50492E",
"r  c #49522B",
"t  c #544332",
"y  c #5B4032",
"u  c #475434",
"i  c #565638",
"p  c #61422D",
"a  c #6D4633",
"s  c #654937",
"d  c #7C4635",
"f  c #66573B",
"g  c #795937",
"h  c #7A543B",
"j  c #436739",
"k  c #516E3F",
"l  c #61613F",
"z  c #4B5B48",
"x  c #6B4745",
"c  c #764A44",
"v  c #675945",
"b  c #725545",
"n  c #7B5844",
"m  c #745A4A",
"M  c #7C5D4A",
"N  c #685B59",
"B  c #725454",
"V  c #785957",
"C  c #4A6943",
"Z  c #5E6C49",
"A  c #4D7546",
"S  c #537346",
"D  c #5A744C",
"F  c #537D4D",
"G  c #587A4F",
"H  c #576853",
"J  c #5E7F52",
"K  c #626144",
"L  c #6B6342",
"P  c #68684B",
"I  c #786A4B",
"U  c #64774E",
"Y  c #7A6457",
"T  c #627653",
"R  c #627C54",
"E  c #697D57",
"W  c #707B56",
"Q  c #745C60",
"!  c #77666A",
"~  c #667669",
"^  c #717C6A",
"/  c #7F6A76",
"(  c #617D71",
")  c #79727B",
"_  c #813D2F",
"`  c #89431E",
"'  c #99411B",
"]  c #894826",
"[  c #964C2A",
"{  c #9A5126",
"}  c #864937",
"|  c #8D553D",
" . c #A6592A",
".. c #A15E3B",
"X. c #896136",
"o. c #BB6C3B",
"O. c #B9703F",
"+. c #C46D3C",
"@. c #C3743F",
"#. c #945746",
"$. c #9B5C45",
"%. c #9B5C4A",
"&. c #846345",
"*. c #886548",
"=. c #8A6649",
"-. c #8D694B",
";. c #9E6145",
":. c #936A4D",
">. c #8A7449",
",. c #9A7146",
"<. c #836655",
"1. c #856B5C",
"2. c #9B6754",
"3. c #996A55",
"4. c #8B705F",
"5. c #B87344",
"6. c #A46655",
"7. c #BA6B5A",
"8. c #AF7557",
"9. c #B37557",
"0. c #80596E",
"q. c #836864",
"w. c #8C7262",
"e. c #84736D",
"r. c #987568",
"t. c #916F72",
"y. c #897B75",
"u. c #B27965",
"i. c #A37F72",
"p. c #C37440",
"a. c #C17A69",
"s. c #598454",
"d. c #5A8454",
"f. c #638157",
"g. c #638559",
"h. c #628C5C",
"j. c #6E826B",
"k. c #698869",
"l. c #6E8D72",
"z. c #738F7D",
"x. c #A3897E",
"c. c #B88476",
"v. c #D78170",
"b. c #6F6680",
"n. c #766D8F",
"m. c #7F7884",
"M. c #7F72AD",
"N. c #807382",
"B. c #827A83",
"V. c #846C96",
"C. c #857B96",
"Z. c #78878A",
"A. c #789286",
"S. c #7E8594",
"D. c #7D9796",
"F. c #7D93A1",
"G. c #8B8384",
"H. c #8C898F",
"J. c #848898",
"K. c #8B899A",
"L. c #938A94",
"P. c #819A9E",
"I. c #9E9094",
"U. c #A68C85",
"Y. c #898CA1",
"T. c #918AA2",
"R. c #8B93A6",
"E. c #8999AA",
"W. c #9294AB",
"Q. c #9A9AA8",
"!. c #8A92B7",
"~. c #8E9DB5",
"^. c #939CB6",
"/. c #A099A1",
"(. c #8EA2B9",
"). c #98A1B5",
"_. c #93A5BE",
"`. c #CB978C",
"'. c #DB9587",
"]. c #D7B4AA",
"[. c #DBC3BB",
"{. c #EDC8BE",
"}. c #8FA6C0",
"|. c #93A6C1",
" X c #94ABC5",
".X c #99ADC6",
"XX c #94AECB",
"oX c #95B0CE",
"OX c #99B1CD",
"+X c #97B4D4",
"@X c #98B4D4",
"#X c #99B7D8",
"$X c #9ABBDE",
"%X c #9ABCE0",
"&X c #E5CDC5",
"*X c #F2CFC6",
/* pixels */
"$X$X$X$X$X$X$X$X$X$X$X$X$X$X$X$X$X$X$X$X$X$X$X$X$X$X$X$X$X$X$X$X$X$X$X$X$X$X$X$X$X$X$X$X$X$X$X$X$X$X$X$X$X$X$X$X$X$X$X$X$X$X$X$X",
"$X$X$X$X$X$X$X$X$X$X$X$X$X$X$X$X$X$X$X$X$X$X$X$X$X$X$X$X$X$X$X$X$X$X$X$X$X$X$X$X$X$X$X$X$X$X$X$X$X$X$X$X$X$X$X$X$X$X$X$X$X$X$X$X",
"$X$X$X$X$X$X$X$X$X$X$X$X$X$X$X$X$X$X$X$X$X$X$X$X$X$X$X$X$X$X$X$X$X$X$X$X$X$X$X$X$X$X$X$X$X$X$X$X$X$X$X$X$X$X$X$X$X$X$X$X$X$X$X$X",
"$X$X$X$X$X$X$X$X$X$X$X$X$X$X$X$X$X$X$X$X$X$X$X$X$X$X$X$X$X$X$X$X$X$X$X$X$X$X$X$X$X$X$X$X$X$X$X$X$X$X$X$X$X$X$X$X$X$X$X$X$X$X$X$X",
"$X$X$X$X$X$X$X$X$X$X$X$X$X$X$X$X$X$X$X$X$X$X$X$X$X$X$X$X$X$X$X$X$X$X$X%X$X$X$X$X$X$X$X$X$X$X$X$X$X$X$X$X$X$X$X$X$X$X$X$X$X$X$X$X",
"$X$X$X$X$X$X$X$X$X$X$X$X$X$X$X$X$X$X$X$X$X$X$X$X$X$X$X$X$X$X$X$X$X$X$X$X$X$X$X$X$X$X$X$X$X$X$X$X$X$X$X$X$X$X$X$X$X$X$X$X$X$X$X$X",
"$X$X$X$X$X$X$X$X$X$X$X$X$X$X$X$X$X$X$X$X$X$X$X$X$X$X$X$X$X$X$X$X$X$X$X$X$X$X$X$X$X$X$X$X$X$X$X$X$X$X$X$X$X$X$X$X$X$X$X$X$X$X$X$X",
"$X$X$X$X$X$X$X$X$X$X$X$X$X$X$X$X$X$X$X$X$X$X$X$X$X$X$X$X$X$X$X$X$X$X$X$X$X$X$X$X$X$X$X$X$X$X$X$X$X$X$X$X$X$X$X$X$X$X$X$X$X$X$X$X",
"$X$X$X$X$X$X$X$X$X$X$X$X$X$X$X$X$X$X$X$X$X$X$X$X$X$X$X$X$X$X$X$X$X$X$X$X$X$X$X$X$X$X$X$X$X$X$X$X$X$X$X$X$X$X$X$X$X$X$X$X$X$X$X$X",
"$X$X$X$X$X$X$X$X$X$X$X$X$X$X$X$X$X$X$X$X$X$X$X$X$X$X$X$X$X$X$X$X$X$X$X$X$X$X$X$X$X$X$X$X$X$X$X$X$X$X$X$X$X$X$X$X$X$X$X$X$X$X$X$X",
"$X$X$X$X$X$X$X$X$X$X$X$X$X$X$X$X$X$X$X$X$X$X$X$X$X$X$X$X$X$X$X$X$X$X$X$X$X$X$X$X$X$X$X$X$X$X$X$X$X$X$X$X$X$X$X$X$X$X$X$X$X$X$X$X",
"$X$X$X$X$X$X$X$X$X$X$X$X$X$X$X$X$X$X$X$X$X$X$X$X$X$X$X$X$X$X%X%X$X$X$X$X$X$X$X$X$X$X$X$X$X$X$X$X$X$X$X$X$X$X$X$X$X$X$X$X$X$X$X$X",
"$X$X$X$X$X$X$X$X$X$X$X$X$X$X$X$X$X$X$X$X$X$X$X$X$X$X$X$X%X%X%X#X$X$X$X$X$X$X$X$X$X$X$X$X$X$X$X$X$X$X$X$X$X$X$X$X$X$X$X$X$X$X$X$X",
"$X$X$X$X$X$X$X$X$X$X$X$X$X$X$X$X$X$X$X$X$X$X$X$X$X$X$X$X%X%X$X%X$X$X$X$X$X$X$X$X$X$X$X$X$X$X$X$X$X$X$X$X$X$X$X$X$X$X$X$X$X$X$X$X",
"$X$X$X$X$X$X$X$X$X$X$X$X$X$X$X$X$X$X$X$X$X$X$X$X$X%X$X$X%X%X#X+X+X%X%X$X$X$X$X$X$X$X$X$X$X$X$X$X$X$X$X$X$X$X$X$X$X$X$X$X$X$X$X$X",
"$X$X$X$X$X$X$X$X$X$X$X$X$X$X$X$X$X$X$X$X$X$X$X$X$X%X%X#X^.m.B x B Y.%X$X$X%X%X$X$X$X$X$X$X$X$X$X$X$X$X$X$X$X$X$X$X$X$X$X$X$X$X$X",
"$X$X$X$X$X$X$X$X$X$X$X$X$X$X$X$X$X$X$X$X$X$X$X$X$X$X~.! *   O @ } :.|.%X#X~.m.XX%X$X$X$X%X%X%X%X$X$X$X$X$X$X$X$X$X$X$X$X$X$X$X$X",
"$X$X$X$X$X$X$X$X$X$X$X$X$X$X$X$X$X$X$X$X$X$X$X%X@XN.-   + > | %.%.#.H.~.Q , m.#X#X$X$X$X#X#X%X#X$X$X$X$X$X$X$X$X$X$X$X$X$X$X$X$X",
"$X$X$X$X$X$X$X$X$X$X$X$X$X$X$X$X$X$X$X$X$X$X$X#X! . O } #.%.$.$... .d * , J.$X$X%X%X$X$X%X%X%X%X$X$X$X$X$X$X$X$X$X$X$X$X$X$X$X$X",
"$X$X$X$X$X$X$X$X$X$X$X$X$X$X$X$X$X$X$X$X$X$X$X_.* : #.%.%.$... ._ * O B |.%X$X$X$X$X%X%X#X%X#X%X$X$X$X$X$X$X$X$X$X$X$X$X$X$X$X$X",
"$X$X$X$X$X$X$X$X$X$X$X$X$X$X$X$X$X$X$X$X$X$X$X|., } %... . .: + O = &.y.#X$X$X$X$X$X$X$X#X%X%X%X$X$X$X$X%X$X$X$X$X$X$X$X$X$X$X$X",
"$X$X$X$X$X$X$X$X$X$X$X$X$X$X$X$X$X$X$X$X$X$X%X Xb [ { ` @ O o ; } | w.|.%X%X$X$X$X$X$X$X%X%X%X#X$X$X%X%X+XXX$X$X$X$X$X$X$X$X$X$X",
"$X$X$X$X$X$X$X$X$X$X$X$X$X$X$X$X$X$X$X$X%X$XR.x O O O X @ d 7.v.'.`.n V W.oX$X$X$X$X$X$X%X#X%X%X%X$XOX^.T.~.%X$X$X$X$X$X$X$X$X$X",
"$X$X$X$X$X$X$X$X$X$X$X$X$X$X$X$X$X$X$X%XXX) < < x p a g a.`.{.*X[.].u e <.j.(.%X$X$X$X$X%X#X%X%XXX^.T.T.W.+X%X$X$X$X$X$X$X$X$X$X",
"$X$X$X$X$X$X$X$X$X$X$X$X$X$X$X$X$X$X$X$X_.C./ V v v c.].*X*X&X&X].3.f u &.W l. X$X$X$X$X$X$XOX^.T.T.W.|.$X$X$X$X$X$X$X$X$X$X$X$X",
"$X$X$X$X$X$X$X$X$X%X$X$X$X$X$X$X$X%X%X+XH.V e q - e K <.u.c.r.r.3.h -.*.b W h.z.+X$X%X#X).K.C.T.W.|.+X$X$X$X$X$X$X$X$X$X$X$X$X$X",
"$X$X$X$X$X$X$X$X$X$X$X$X$X$X$X$X%X%X_.q.; 4 2 5 q w 4 o a a h &.=.-.-.i K E h.h.P.$X@XW.t.n.C.XX%X%X$X$X$X$X$X$X$X$X$X$X$X$X$X$X",
"$X$X$X$X$X$X$X$X$X$X$X$X$X$X$X$X%X|.2._ w 6 5 1 3 = $ h :.*.-.-.-.-.I s.T f.h.h.k.W.K.N.n.M.!.%X$X%X$X$X$X$X$X$X$X$X$X$X$X$X$X$X",
"$X$X$X$X$X$X$X$X$X$X$X$X$X$X$X$X@XC.$.> Z d.s.0 3 p 8 i &.-.*.=.I P J k.g.g.h.^ y.m.~ 9 9 z F.%X$X$X$X$X$X$X$X$X$X$X$X$X$X$X$X$X",
"$X$X$X$X$X$X$X$X$X$X$X$X$X$X$X$XI.6.} , E h.k.A r L s.A i l U U E J R h.g.^ m.y.^ h.R D 4 2 ( $X$X$X$X$X$X$X$X$X$X$X$X$X$X$X$X$X",
"$X$X$X$X$X$X$X$X$X$X$X$X$X$X$X#Xi.%._ a h.h.h.j i E k.h.h.h.h.h.h.h.E ^ B.N.^ h.h.h.g.R D j H oX%X$X$X$X$X$X$X$X$X$X$X$X$X$X$X$X",
"$X$X$X$X$X$X$X$X$X$X$X$X$X$X$X@Xr.6._ b h.h.d.A D h.d.h.h.h.h.h.W >.3.) H ~ D.h.h.h.h.g.j.Z.E.#X$X$X$X$X$X$X$X$X$X$X$X$X$X$X$X$X",
"$X$X$X$X$X$X$X$X$X$X$X$X$X$X%X+XL.#.> l h.h.h.g.f.h.h.k.g.d.>.,.5.O.g 4 5 ( #XD.h.d.h.A. X$X%X$X$X$X$X$X$X$X$X$X$X$X$X$X$X$X$X$X",
"$X$X$X$X$X$X$X$X$X$X$X$X$X$X%X%X^.6.: L h.h.h.g.J g.R n.0.}  .O.| r 3 j F z.#X#XD.k.E.+X$X$X$X$X$X$X$X$X$X$X$X$X$X$X$X$X$X$X$X$X",
"$X$X$X$X$X$X$X$X$X$X$X$X$X$X$X%XQ.%.: P h.h.h.h.T J ( V.0.[ | r 5 j G d.h.z.#X$X$X#X$X$X$X$X$X$X$X$X$X$X$X$X$X$X$X$X$X$X$X$X$X$X",
"$X$X$X$X$X$X$X$X$X$X$X$X$X$X$X%XQ.%.> l h.h.h.g.D S ( V.V.x.k 5 s.s.h.f.h.l.#X$X$X$X$X$X$X$X$X$X$X$X$X$X$X$X$X$X$X$X$X$X$X$X$X$X",
"$X$X$X$X$X$X$X$X$X$X$X$X$X$X$X%X^.%.> $ j h.h.g.D k T b.! v 6 A h.h.h.R h.k.XX$X$X$X$X$X$X$X$X$X$X$X$X$X$X$X$X$X$X$X$X$X$X$X$X$X",
"$X$X$X$X$X$X$X$X$X$X$X$X$X$X$X$X#XK.c a C g.R L K k i 4 6 6 F h.h.h.h.R h.k. X%X$X$X$X$X$X$X$X$X$X$X$X$X$X$X$X$X$X$X$X$X$X$X$X$X",
"$X$X$X$X$X$X$X$X$X$X$X$X$X$X$X$X$X$X.X|.x.] ' ' { g 4 1 0 s.h.h.h.h.T R h.k. X%X$X$X$X$X$X$X$X$X$X$X$X$X$X$X$X$X$X$X$X$X$X$X$X$X",
"$X$X$X$X$X$X$X$X$X$X$X$X%X$X$X$X$X%X@XU.O.o.+.o.| 7 1 0 d.h.h.d.h.h.J Z U P.$X$X$X$X$X$X$X$X$X$X$X$X$X$X$X$X$X$X$X$X$X$X$X$X$X$X",
"$X$X$X$X$X$X$X$X$X$X$X$X$X$X$X$X$X$XU.@.@.p.@.X.3 1 0 s.J G D Z K P Y Y Y  X%X$X$X$X$X$X$X$X$X$X$X$X$X$X$X$X$X$X$X$X$X$X$X$X$X$X",
"$X$X$X$X$X$X$X$X$X$X$X$X$X$X$X$X$X$X).9.@.p.i.C 1 3 9 r q t s ! q.4.4.4.w..X$X$X$X$X$X$X$X$X$X$X$X$X$X$X$X$X$X$X$X$X$X$X$X$X$X$X",
"$X$X$X$X$X$X$X$X$X$X$X$X$X$X$X$X$X$X%X^.8.x.@Xm.# # # & b Y R.@XH.4.4.<.! .X%X$X$X$X$X$X$X$X$X$X$X$X$X$X$X$X$X$X$X$X$X$X$X$X$X$X",
"$X$X$X$X$X$X$X$X$X$X$X$X$X$X$X$X$X$X$X$X X#X%XS.# & m 1.w.H.$X%X(.Y 4.<.e.oX$X$X$X$X$X$X$X$X$X$X$X$X$X$X$X$X$X$X$X$X$X$X$X$X$X$X",
"$X$X$X$X$X$X$X$X$X$X$X$X$X$X$X$X$X$X$X$X$X$X%XS.% b w.w.w._.%X%X+XN M 1.e.+X$X$X$X$X$X$X$X$X$X$X$X$X$X$X$X$X$X$X$X$X$X$X$X$X$X$X",
"$X$X$X$X$X$X$X$X$X$X$X$X$X$X$X$X$X$X$X$X$X$X%XP.% b w.w.y.+X$X$X$X) s w.y.+X%X$X$X$X$X$X$X$X$X$X$X$X$X$X$X$X$X$X$X$X$X$X$X$X$X$X",
"$X$X$X$X$X$X$X$X$X$X$X$X$X$X$X$X$X$X$X$X$X$X%XE.& m w.4.B.$X$X$X%XZ.% Y y.#X$X$X$X$X$X$X$X$X$X$X$X$X$X$X$X$X$X$X$X$X$X$X$X$X$X$X",
"$X$X$X$X%X$X$X$X$X$X$X$X$X$X$X$X$X$X$X$X$X%X%X}.y m w.w.G.$X$X$X%XY.% n t.OX%X$X$X$X$X$X$X$X$X$X$X$X$X$X$X$X$X$X$X$X$X$X$X$X$X$X",
"$X$X$X$X$X$X$X$X$X$X$X$X$X$X$X$X$X$X$X$X$X$X$XOXx b w.w.G.%X%X$X%X_.;.o.@.8..X%X$X$X$X$X$X$X$X$X%X$X$X$X$X$X$X$X$X$X$X$X$X$X$X$X",
"$X$X$X$X$X$X$X$X$X$X$X$X$X$X$X$X$X$X$X$X$X$X$X$X! b :.:.3.Q.%X$X$X#X/.U.U.I.OX%X$X$X$X$X$X$X$X$X$X$X$X$X$X$X$X$X$X$X$X$X$X$X$X$X",
"$X$X$X$X$X$X$X$X$X$X$X$X$X$X$X$X$X$X$X$X%X$X$X%XQ.8.9.9.u.I.#X$X$X$X%X%X%X%X$X$X$X$X$X$X$X$X$X$X$X$X$X$X$X$X$X$X$X$X$X$X$X$X$X$X",
"$X$X$X$X$X$X$X$X$X$X$X$X$X$X$X$X$X$X$X$X$X$X$X$X$XOXOXOX@X$X%X$X$X$X$X$X$X$X$X$X$X$X$X$X$X$X$X$X$X$X$X$X$X$X$X$X$X$X$X$X$X$X$X$X",
"$X$X$X$X$X$X$X$X$X$X$X$X$X$X$X$X$X$X$X$X$X$X$X$X%X%X$X$X%X$X$X$X$X$X$X$X$X$X$X$X$X$X$X$X$X$X$X$X$X$X$X$X$X$X$X$X$X$X$X$X$X$X$X$X",
"$X$X$X$X$X$X$X$X$X$X$X$X$X$X$X$X$X$X$X$X$X$X$X$X$X$X$X$X$X$X$X$X$X$X$X$X$X$X$X$X$X$X$X$X$X$X$X$X$X$X$X$X$X$X$X$X$X$X$X$X$X$X$X$X",
"$X$X$X$X$X$X$X$X$X$X$X$X$X$X$X$X$X$X$X$X$X$X$X$X$X$X$X$X$X$X$X$X$X$X$X$X%X$X$X$X$X$X$X$X$X$X$X$X$X$X$X$X$X$X$X$X$X$X$X$X$X$X$X$X",
"$X$X$X$X$X$X$X$X$X$X$X$X$X$X$X$X$X$X$X$X$X$X$X$X$X$X$X$X$X$X$X$X$X$X$X$X$X$X$X$X$X$X$X$X$X$X$X$X$X$X$X$X$X$X$X$X$X$X$X$X$X$X$X$X",
"$X$X$X$X$X$X$X$X$X$X$X$X$X$X$X$X$X$X$X$X$X$X$X$X$X$X$X$X$X$X$X$X$X$X$X$X$X$X$X$X$X$X$X$X$X$X$X$X$X$X$X$X$X$X$X$X$X$X$X$X$X$X$X$X",
"$X$X$X$X$X$X$X$X$X$X$X$X$X$X$X$X$X$X$X$X$X$X$X$X$X$X$X$X$X$X$X$X$X$X$X$X$X$X$X$X$X$X$X$X$X$X$X$X$X$X$X$X$X$X$X$X$X$X$X$X$X$X$X$X",
"$X$X$X$X$X$X$X$X$X$X$X$X$X$X$X$X$X$X$X$X$X$X$X$X$X$X$X$X$X$X$X$X$X$X$X$X$X$X$X$X$X$X$X$X$X$X$X$X$X$X$X$X$X$X$X$X$X$X$X$X$X$X$X$X",
"$X$X$X$X$X$X$X$X$X$X$X$X$X$X$X$X$X$X$X$X$X$X$X$X$X$X$X$X$X$X$X$X$X$X$X$X$X$X$X$X$X$X$X$X$X$X$X$X$X$X$X$X$X$X$X$X$X$X$X$X$X$X$X$X",
"$X$X$X$X$X$X$X$X$X$X$X$X$X$X$X$X$X$X$X$X$X$X$X$X$X$X$X$X$X$X$X$X$X$X$X$X$X$X$X$X$X$X$X$X$X$X$X$X$X$X$X$X$X$X$X$X$X$X$X$X$X$X$X$X",
"$X$X$X$X$X$X$X$X$X$X$X$X$X$X$X$X$X$X$X$X$X$X$X$X$X$X$X$X$X$X$X$X$X$X$X$X$X$X$X$X$X$X$X$X$X$X$X$X$X$X$X$X$X$X$X$X$X$X$X$X$X$X$X$X",
"$X$X$X$X$X$X$X$X$X$X$X$X$X$X$X$X$X$X$X$X$X$X$X$X$X$X$X$X$X$X$X$X$X$X$X$X$X$X$X$X$X$X$X$X$X$X$X$X$X$X$X$X$X$X$X$X$X$X$X$X$X$X$X$X",
"$X$X$X$X$X$X$X$X$X$X$X$X$X$X$X$X$X$X$X$X$X$X$X$X$X$X$X$X$X$X$X$X$X$X$X$X$X$X$X$X$X$X$X$X$X$X$X$X$X$X$X$X$X$X%X$X$X$X$X$X$X$X$X$X"
};
