/* XPM */
static char *result[] = {
/* columns rows colors chars-per-pixel */
"64 64 241 2 ",
"   c #330901",
".  c #14330F",
"X  c #382A18",
"o  c #363918",
"O  c #2F2A0F",
"+  c #331C2B",
"@  c #2F312C",
"#  c #571601",
"$  c #4A1903",
"%  c #601F0D",
"&  c #5C3B1E",
"*  c #4A2B11",
"=  c #692E15",
"-  c #433B27",
";  c #523131",
":  c #653A26",
">  c #763A25",
",  c #6B3C33",
"<  c #36461D",
"1  c #234219",
"2  c #2B4828",
"3  c #394B38",
"4  c #385135",
"5  c #354B2D",
"6  c #41571D",
"7  c #484A28",
"8  c #59472B",
"9  c #465926",
"0  c #584B3A",
"q  c #4B5636",
"w  c #5A5635",
"e  c #484834",
"r  c #6E4328",
"t  c #6A4D37",
"y  c #63553A",
"u  c #784A34",
"i  c #47673C",
"p  c #596839",
"a  c #55622C",
"s  c #67673E",
"d  c #3B3B43",
"f  c #543B48",
"g  c #3D4F48",
"h  c #3E4756",
"j  c #3B6745",
"k  c #4B4B47",
"l  c #575947",
"z  c #4E5653",
"x  c #794B48",
"c  c #665541",
"v  c #695D55",
"b  c #724F4B",
"n  c #496649",
"m  c #5D6C4C",
"M  c #586646",
"N  c #4E6953",
"B  c #596857",
"V  c #5A7658",
"C  c #5E7848",
"Z  c #626945",
"A  c #646B4A",
"S  c #6D6B4D",
"D  c #6A6245",
"F  c #77694C",
"G  c #65744A",
"H  c #696859",
"J  c #786656",
"K  c #687756",
"L  c #747959",
"P  c #54586A",
"I  c #494E63",
"U  c #6D5E66",
"Y  c #5A6966",
"T  c #587777",
"R  c #5E766B",
"E  c #69656D",
"W  c #776A6A",
"Q  c #6B7B6B",
"!  c #697765",
"~  c #757667",
"^  c #696B74",
"/  c #726878",
"(  c #677776",
")  c #777977",
"_  c #85471E",
"`  c #86493B",
"'  c #995B36",
"]  c #8C5237",
"[  c #AA6D3D",
"{  c #975B49",
"}  c #8D5854",
"|  c #85684C",
" . c #996342",
".. c #87655A",
"X. c #837559",
"o. c #936F57",
"O. c #A56A53",
"+. c #8C5F62",
"@. c #956D66",
"#. c #877469",
"$. c #82787B",
"%. c #926C6D",
"&. c #A76963",
"*. c #AF7276",
"=. c #539158",
"-. c #4B9048",
";. c #6D8459",
":. c #78875A",
">. c #699759",
",. c #708B51",
"<. c #5DA35B",
"1. c #5E8863",
"2. c #6A8567",
"3. c #7C8B69",
"4. c #758466",
"5. c #6B8676",
"6. c #778877",
"7. c #7A9274",
"8. c #6F9C68",
"9. c #83855A",
"0. c #858568",
"q. c #849668",
"w. c #868679",
"e. c #809676",
"r. c #91916D",
"t. c #B78571",
"y. c #CA8E72",
"u. c #5C738A",
"i. c #737786",
"p. c #697A8E",
"a. c #977D90",
"s. c #AC7A8D",
"d. c #C17F80",
"f. c #6C8682",
"g. c #778886",
"h. c #788195",
"j. c #7A9695",
"k. c #7395B6",
"l. c #718EAB",
"z. c #7D9EC1",
"x. c #8A8682",
"c. c #9A8387",
"v. c #888B99",
"b. c #849796",
"n. c #9A9194",
"m. c #958795",
"M. c #BA959A",
"N. c #A69290",
"B. c #87A082",
"V. c #B2A295",
"C. c #8899A5",
"Z. c #969BA7",
"A. c #949FB3",
"S. c #8D92AC",
"D. c #A999A7",
"F. c #A09BB2",
"G. c #8DA3B7",
"H. c #93ADB4",
"J. c #99A9BA",
"K. c #9CBBBC",
"L. c #93A8AF",
"P. c #A8A3A1",
"I. c #A7ACB8",
"U. c #A5B4BA",
"Y. c #B3B2B9",
"T. c #B7A5B8",
"R. c #C29C85",
"E. c #DAA18D",
"W. c #E0B29A",
"Q. c #C599BA",
"!. c #D6BEA4",
"~. c #EDBFA8",
"^. c #97C1BF",
"/. c #A4C2BA",
"(. c #F9D5BE",
"). c #F1C9B1",
"_. c #8699C3",
"`. c #8AAACD",
"'. c #85A5C7",
"]. c #98ADC8",
"[. c #9BB4CC",
"{. c #97B8CA",
"}. c #8DACD4",
"|. c #9CACD1",
" X c #8DB6D6",
".X c #92B3D5",
"XX c #9CB5D4",
"oX c #9DB9D6",
"OX c #95B6D9",
"+X c #9BB7DA",
"@X c #97B9DD",
"#X c #9BBCDF",
"$X c #96B9D5",
"%X c #A8AAC7",
"&X c #AAB3C4",
"*X c #A4B4CC",
"=X c #ABB5CB",
"-X c #A9B9CE",
";X c #A5B7C6",
":X c #B6B7C7",
">X c #A4B6D2",
",X c #ADB4D4",
"<X c #A4BAD4",
"1X c #AABBD3",
"2X c #A4B6DC",
"3X c #A9B5DA",
"4X c #A1BADA",
"5X c #ACBDDB",
"6X c #B2B9D4",
"7X c #ABAFD2",
"8X c #8CBEE9",
"9X c #9EB6E4",
"0X c #96BCE4",
"qX c #9BBCE2",
"wX c #94BDE9",
"eX c #9ABBEB",
"rX c #96B4E3",
"tX c #9ABEF2",
"yX c #A2B5E3",
"uX c #A2BBE3",
"iX c #A7BBE8",
"pX c #B0BDE7",
"aX c #C5BBC4",
"sX c #9CC2DA",
"dX c #93C2C8",
"fX c #A1C3C2",
"gX c #A5C2D5",
"hX c #A8C7DB",
"jX c #B6C6D5",
"kX c #B0CBD4",
"lX c #9FC1E3",
"zX c #9AC2E9",
"xX c #9AC5F1",
"cX c #A2C2E5",
"vX c #A5C6E9",
"bX c #A8C8EA",
"nX c #B4C6E7",
"mX c #B6CCF3",
"MX c #D1C8D0",
"NX c #FFE1C9",
"BX c #E0D4D1",
/* pixels */
"#X#XqX#X#X#X#X#X#X#X#X#X#X#X#X#X#X#X#X#X#X#X#XsXqX#X#X#X#X#X#X#X#X#X#X#X#X#X#X#X#X#X#XqXqX#X#X#X#X#XqX#X#X#X#X#X#X#X#X#X#X#X#XqX",
"#X#X#X#XqX#X#X#X#X#XqXqX#X#X#XqXqX#X#X#X#X#X#X#XqX#X#XqX#X#X#X#X#XlX#X#X#XqX#X#X#X#X#XsX#X#X#X#X#X#X#X#X#XqX#X#X#X#XqXqX#X#X#X#X",
"#X#X#X#X#X#X#X#X#X#X#XsX#X#X#X#X#X#X#X#X#X#X#X#X#X#X#X#XqX#X#X#X#X#X#X#XqXqX#X#X#XqX#X#X#X#XqX#X#X#X#X#X#X#X#X#XqX#X#XsX#X#X#X#X",
"#X#X#X#X#X#X#X#XqX#X#X#X#X#X#X#X#X#X#X#XqX#X#X#X#X#X#X#X#X#X#X#X#X#X#X#X#XsX#X#X#X#X#X#X#X#X#X#X4X#X#X#X#X#X#X#X#X#X#X#X#X#X#X#X",
"qX#X#X#X#X#X#X#X#X#X#X#X#X#X#X#XsXqX#X#X#X#X#X#X#X#XqXqX#X#X#X#X#X#X#X#X#XqX#X#X#XqX#X#XqXsX#X#XlXqX#X#X#X#X#X#X#X#X#X#X#X#X#X#X",
"#X#X#XqX#X#XqX#X#X#X#X#X#XqX#X#X#XqXqX#X#X#X#X#X4XqXsX#X#X#X#X#XqX#X#X#X#X#X#X#X#X#X#X#XqX#X#X#X#X#X#X#X#X#X#XqX#X#X#X#XqX#X#X#X",
"#X#X#X#X#XqXqX#X#X#X#XqXqX#X#X#X#X#X#X#XqX#X#X#XqX#X#X#X#X#X#X#X#X#X#X#X#X#X#X#X#X#X#X#X#X#X#X#X#X#X#XqX#XqXqX#X#X#XqX#X#XqX#X#X",
"#X#X#X#X#XsX#X#XqX#XqXsX#X#X#X#X#X#X#X#X#X#X#XqX#X#XqX#X#X#X#XqX#X#X#X#XqX#X#X#X#X#X#X#XqX#X#X#X#X#X#X#X#XsX#X#X#XqXqXsX#X#X#X#X",
"#X#X#X#X#X#X#X#X#X#X#X4XlX#X#X#X#X#X#XqX#X#X#X#X.X}.#XcXcXOXOXqXcX#X#X#X#X#X@X@X#X#X#X#X#X#X#X#X#X#X#X#X#X#X#X#X#X#X#X#X#X#XsXqX",
"#XqX#X#X#X#X#X#X#X#X#X#X#X#X#XqX#X#X#X#X#X#X#X#XbX#X.XOXOX.X.X+XOXOX@X@X#X#X#X#X#X#X#X#X#X#X#XqX#X#XqX#XqX#X#X#X#X#X#X#X#X#X#XqX",
"#X#X#X#XqX#X#X#X#X#X#XqX#X#X#X#X#X#X#X#X#XqX#X#XvXOX.XOXqXlXqXcX#X#X#XcX#X#X#XOX#X#X#X#X#X#XqX#X#X#X#X#X#X#X#X#X#X#X#X#X#X#X#X#X",
"#X#X#X#X#X#X#XqX#X#X#X#X#X#X#X#X#X#X#X#XsXqX#X#X@XOX#XcXcXcXcXqX#X@X@XOX@XOX#X#X#X#X#X#X#X#X#X#X#X#X#X#X#X#X#X#X#X#X#XqX#X#XqX#X",
"#XqXqX#X#XqX#X#X#X#X#X#X#X#X#X#X#X#X#X#X#X#X#X#X.X#XlX#XOX.X.XOX$X.X.X.X.XOXqXcX#X#X#X#X#X#X#X#X#XqX#X#XqX#XsXqX#X#X#XlX#X#X#X#X",
"#XsX#X#X#X#XsXqX#X#X#X#X#XqX#X#X#X#X#X#XsX#X#X#XOX#X#X.X}.qXvXvXvXvXcXcXqX#X@X@X#X#X#X#X#X#X#X#XsXqX#X#X#X#XqX#X#X#X#X4X#X#XqX#X",
"#X#X#XqX#X#X#X#X#X#X#XqX#X#XsXqX#X#X#X#XqXqX#X#X@X#XOXOXqXbX9X`.'.`.OXqXcXqX@X.X#X#X#X#X#XqX#XqX#X#XqX#X#X#X#X#X#X#X#XqX#X#X#X#X",
"#X#X#X#X#X#X#X#XqX#X#X#X#X#X#XqX#X#X#X#X#XqXqX#XqX4X4X4X5X,Xp.I I P i.L.*X5X5XuXqXqXqXqX#X4X4X4X#X#X#X#X#X#X#X#X#XqX#X#X#X#X#X#X",
"#X#X#X#X#X#X#X#XcX#XOXOX#XcX4X@XoX+X+XOX@X@X@X@X`.u.S.:XMXM.f } & $   ; +.D.6XiXuXqX0X0XyX3X,X,X4XqX#X#X#X#X#X#X#X#X#X#X#X#XqX#X",
"#X#X#X#XqX#XsX#XOXOX@X#X#X#X#XcXoX4X@X@XlX8X8XsXbXu.I I a.R.} { [ [ ' %   + i.|.uX0XwXqXuX3X7X7X4XqX#X#X#X#X#X#XqX#X#X#X#X#X#X#X",
"#X#X#X#X#X#XqXqX}.OXlXcX@XOX#X#X+X2X#XqXwX X8X@XnXJ.p.k f x } { _ ' [ { , ; f I XXOX@XqXuX2XyX,X4X#X#XqX#XqX#X#X#X#X#XqX#X#X#X#X",
"qX#X#X#X#X#X#X#XOXqXcXlX#XOXOX+X4X#X+X0X0X0X0X@X>XnXmXv.; ; ; > [ ' { { &.+.f + %X[.+X#XqXyXyXyXuX#X#X#X#X#X#X#X#X#XsXqX#X#X#X#X",
"#XqXlX4X#X#X#X#XqX#X.X@X#XqXqX+X9X9XyX0X0X0XrX@X|.*X6X!.c.b t $ = > _ { &.} x f Y.-XgXgXqX0XyXiXqXqX#X#X#X#X#X#X#X#X#X#XqX#X#X#X",
"#X#X#X#X#XqX#X#X@X.X'.`.OXqXcXeXyXyX9X9X0XrX#X@XhXK.I.MXN.....r $ # % > ` ` x x D.I.1XhXqX0XeXeX9X#X#X#X#X#X#X#X#X#X#X#X#X#X#X#X",
"#X#X#X#XqX#X#X#XqX.X'.z.z.`..X9XyXyX9X9XqXqX@XoXhX;XL.P.v y V.y.E.t._ % # % = : J g.L.{.lXzXtXeX9X#X#X#XsX#X#XqX#XqX#X#XsX#X#X#X",
"#X#X#X#X#X#X#X#XvXqX`.k.l.k.'..XyXyXyX9XyX#XoX{.{.Z.) H X 0 ).(.).~.E.t.' > : : X k g.H.#XeXtXeXqXqX#XqXqXqX#X#X#X#XqX#XqXqX#X#X",
"#X#X#XqX#X#X#XqX#X#X#XOX}.z.l.l._.|.pXmX+XoXhX1XH.5.) z l y F !.(.).NXNX).y. .& J ~ g.J.hXcXrX}.#X@X+X@X@X#X@X@X#X#X#X#X#XqXqX#X",
"#X#X#X#X#X#X#X#XOX@X#X@XOX.X`.'.l.p.l._.].hXkXH.f.( Q l l S y 0.o...o.O.' r r & 8 q B 5.G.<XiXiX+X#X#X#X@X#X+X@X#X#X#X#X#XsX#X#X",
"sX#X#X#X#X#X#X#X+X@X#X#X#X4X#X+X'.p.u.p.C.{.^.b.( Q Q M S 0.D D D y u t * * 8 8 X o @ g R C.*X5X2X@X@X@X#X@X#X#X#X#X#X#X#X#X#X#X",
"qX#X#X#XqXqXsX#X#X#X#X@X@X@X#XoX6XS.i.i.5.g.b.f.5.6.! A L 0.S S L L #.F r * 8 7 < 5 5 3 k ^ D.:X>X#X@X#X#X+X+X@X#X#XqX#X#X#X#XqX",
"qX#X#X#X#X#XqX#XlX#X#XOXOXOX#XoXjXg.I g N T 2.! 5.4.V H L K Z L Z p S S a w 7 < n K 2.B k v a.T.>X#X@X#X+X#X#X#X#X#X#X#X#X#X#X#X",
"#X#X#X#X#XqX#X#X#X#X#X#X#XqXqXhXJ.B @ 3 n Q 5.K K 4.A ;.3.Z G L A M M A M A m 4 n 5.7.K 0 t o.N.=X@X#X@X@X@X@X@X#X#X#X#X#X#X4XqX",
"#X#X#X#X#X#X#X#X@X#X#X#XlXcX#XgXU.! 3 N R 6.7.2.V 7.K ;.3.K 4.K 3.2.;.4.! 2.2.n j 1.7.K 8 t { %.=X+X@X#X#X@X#X@X#X#XqXqX#XqXqX#X",
"#XqX#X#X#X#X#X#X@X+X#X#X#X@X@X[.K.g.5.g.5.R 5.5.V B.V M K ;.r.G ;.;.3.3.Q 6.5.j j 1.8.;.w u { +.=X#X@X@X#X+X@X#X#XqXsX#X#X#X#X#X",
"qX#X#X#X#X#X#X#X#X#X#X#X#X#X#X#X{.<XgX].j.u.T T j./.1.. 1 p q.,.a 9.r.~ W W 6.1.=.-.<.8.G 8 x s.7XyXrX9XqXqX#X#X#X#X#X#X#XqX#X#X",
"#X#X#X#X#X#X#XqXqX#X#X#X#X#X#X4X$XsXhXOXz.k.k.l.dXfX5.N i < 9 9 r.a - J c.) ! V -.-.-.-.i 0 %.Q.3XyXqX9XsX#X#X#X#X#X#X#X#X#X#X#X",
"#X#X#X#X4XlX#X#X#X#X#X#X#X#XsX#X+X+XlXlXsX X{.{.dX^.f.5.>.9 6 6 a s D H W ) Q V >.<.>.>.Z 0 b a.,XqX#X#XqX#X#X#X#XqX#X#XsX#X#X#X",
"#X#X#X#X#XqX#X#X#X#X#X#XqX#X#X@X$X+X XsXsXzXsXoXK.fX5.1.2.;.,.s . s r.r.! ~ ! M C ,.9.9.Z 0 U D.<X#X#X#X#X#X#X#X#X#X#X#XqX#X#X#X",
"#XqX#X#X#X#X#X#X#X#X#X#X#X#X#X#X4X+X@X@X#XsX@X$X{.fXf.V 2.;.q.:.s 7 q ! 6.H l m 9.9.9.y 7 @ W I.4X#XqX#X#X#X#X#X#X#X#X#XqX#XqX#X",
"sXqX#X#X#XqX#X#X#X#XqX#XqX#X#X#XcX4X#X+X0XsX$X{.hXH.T 5.7.C K 9.q.m < 2 5 n M Z F | | F t l ) H.4X#X#X#X#X#X#X#X#X#X#X#X#X#X#X#X",
"#X#X#X#X#X#X#X#X#X#X#XsX#X#X#X#X4X4X4X#XrXOX$X$XXXJ.T ! 4.m L :.L w.K 2 . 2 m F : r ] @.c.P./.kXoXqX#X#X#X#X#X#XqX#X#X#X#X#X#X#X",
"#X#XqX#X#X#X#X#X#XqX#XqX#X#X#X#X@X@X@X@X.X.X$X#X{.jXj.N B K 0.S 4.4.6.>.j 1 7 F t.&.@.*.M.Y.^.dXoXsX#X#X#X#X#XqX#X#X#XqX#X#X#X#X",
"#X#X#X#X#XqX#X#X#X#X#X#X#XqX#X#X#X#X#XqX0XqX#X+X<XfXC.( ! l w.q H B ! 1.=.9 o O u d.*.*.c.b.fXdXsX#X4X#X#X#X#X#X#X#X#X#X#X#X#X#X",
"#X#X#X#X#X#XqXsX#X#X#X#X#X#X#XqX#X#XqX#X#XqX#X#X4X1XJ.( ) H 0.H z k 3 2 5 4 7 t } *.*.a.m.C.dXdXsXqXqX#X#X#X#X#XsX#XqX#X#X#X#X#X",
"#XqX#X#X#X#XqX#X#X#X#X#X#X#X#XqXoX#X#XlXqXqXuX4X2X<X*X^ 6.~ ~ x.I.b.Y 4 < < o X +.M.s.a.L.%XhXsX$X#X#X#X#X#X#XqXqX#X#X#X#X#X#XqX",
"#X#X#X#X#X#X#X#X#XqX#X#X#X#X#XsX#X#X#XqX0XqX9XuX|.*X&XY $.W H P.jX{.j.Q K Z 8 X a.aXQ.%X*XgXhXsX@X#X#X#XqX#X#X#XqX#X#X#X#X#X#X#X",
"sX#X#X#X#X#XqX#X#X#X#X#X#X#X#X#X@X#XqXqX9XeX9XuXXX|.6XP W H v /.U.[.Z.w.0.0.c - x.:XgX2X4X}.@XXX#X#X#X#X#X#XsX#X#X#XqX#X#X#X#XqX",
"qX#X#X#X#X#X#X#X#XqX#X#X#X#X#X#XqX#XqXeXeXqX9XuX2X3X6Xi./ k W Q.5XhXJ.$.X.X.y O g.,XsXxXcX}.2XyX4XlX#X#X#X#XqXqX#X#X#X#X#X#X#X#X",
"qX#X#X#X#X#X#X#XsXqX#X#X#X#X#X#X#X#XqXqX9XeXeXiX2X3X=Xv.E @ w.aX].4XI.$...@.J e b.gXsXxXxXOXiXpX#XqX#X#X#X#XqX#X#X#X#X#X#X#XsXqX",
"#X#X#XqX#X#X#X#X#XqX#X#X#X#X#X#X@XzXqXqXqX9XqX2X|.7XI.v.E + n.MX].nX:Xc.#.#.J @ J.hX Xz.xXrXiXyXuX#X#X#X#X#X#X#X#X#X#X#X#X#X#XqX",
"#X#X#X#X#X#X#X#X#X#X#X#X#X#X#XqX@X0X0X@X0X@X>X>X>XL.i./ / x.D.Y.:X:X&Xn.$./ z d &X*X#XqXwXeX8XwXqX#X#X#X#X#X#X#X#X#X#X#X#X#X#XqX",
"qX#X#X#X#X#X#X#XlX4XqX#X#X#X#XqX0X0X0X@X@X+XoX<X-X%XZ.C.v.Z.P.Y.I.I.Z.) E ^ ^ P -X-X<X4XwXwX8XxX0X#X#X#X#XqX#X#X#X#X#X#X#X#X#X#X",
"#XqX#X#X#XqX#X#XqX#X#X#X#X#XsXqX0X0XrX#X@X+X4X*X1X-X&X&XY.Y.:X:X&X&XA.h.i.h.v.v.-X-X4X+X0XwX8XwXqX#X#X#X#X#X#X#XqXqX#X#X#X#X#X#X",
"#X#X#X#X#X#X#X#X#X#X#X#X#X#XqXqX0X0X@X0X@X+X4XoX<X*X1X6X6X=X&X&X=X,X*X%XJ.&X*X;X-X1X4X#XqXwXwX8XqX#X#X#X#X#X#X#X#XsXqX#X#X#X#X#X",
"#X#X#X#XsXqX#X#X#X#X#X#X#XqX#XqXrX@XqX@X#X@X+XoXXX[.<X<X1X*X>X[.XX<X1X<X1X5X1X>X1X4X4X#XqX0XzXzXqX#X#X#X#XsX#X#X#X#X#X#X#X#X#X#X",
"#X#X#X#X#XqX#X#X#X#X#X#X#X#X#X#X@X@X@XqX@X#X#X@X@X+X@X+XoX4XoXoX#X#XoX$XXXoX2XhXoX4X#X#X#XqX0X0XqXqX#X#XqXqX#XqX#X#X#X#XqX#X#X#X",
"#X#X#X#X#X#X#X#X#X#X#XqX#X#X#X#X#X#XOX#X+XqXrX#XqXqX#X#X#XqXqXqXlXqXqXOXqX#X#XcX#X#X4X#X#XqX#X#XqX#X#X#X#X#X#X#X#X#XqX#X#X#X#X#X",
"#X#X#XqX#X#X#XqX#X#X#X#X#X#X#X#XOX#X#X#XrX+XqXOXqXqX0X0X0X0X0X0X0X0XwXeXqXqXOXOX#X#X#X#X#X#X#X#X#X#X#X#X#X#X#X#X#XqX#X#X#XqXqXsX",
"#XqX#X#X#X#X#XqXqX#X#X#XqX#X#X#X4X#X#XqXqXqXqXqXqX0X0XwXwXwXwXwXwXwXwXwXwXwX0X0XqXqXqXqX#X#X#X#X#X#X#XqXqXsX#X#X#X#X#XsXqX#X#X#X",
"#XqXsX#X#X#X#X#X#X#X#X#X#X#X#X#X#X#X4XqXqX#XqXqXqX0X0XwXwXwXwXwX0XwX0X0X0XzXwXwXwX0XqXqX#X#X#XoX#XqX#X4XqX#X#X#X#X#X#X#XqX#X#X#X",
"#X#X#X#X#X#X#X#XsX#X#X#X#XqX#X#X#X4X#X#X#X#XqXqX0XzX0XzX0XwX0XzXrX#XqXzXwX0XwX0XwXqX0XqX#X#X4X4X4X#X#X#X#X#X#X#X#X#X#X#X#X#X#X#X",
"#X#XqX#X#X#X#X#XqXqX#X#X#X#X#X#X#X#X#X#X#X#XqXqXqX#X0XqXqX@X#X#X#X#X#XqXqXwX0XwXwX0XqXqX4X4X<X4X#X#XqX#X#X#X#XqX#X#X#XqX#X#XqX#X",
"#X#X#X#X#X#X#X#X#X#X#X#X#X#X#X#X#X#X#X#X#X#X#X#X#X#X#X#X#X#XoX#X4X4X4X+XqXqXqX0XwX0XqXqXoX4X4X4X#X#X#X#X#X#X#X#X#X#X#XqX#X#X#X#X",
"#XqX#X#XqX#X#X#X#XqX#X#X#X#X#X#XqXqX#X#X#XqX4X#X#X+X4X4X4X4X4X<X*X-X<X4X#XqXqXwXwX0XqXqX#X4X4X4X4X#X#X#X#X#X#X#X#XqX#XsX#X#XqX#X",
"qX#X#X#X#X#XsX#X#X#X#X#X#X#X#XlXqX#XqXqX#X#X4X#X4X4X4X4X4X<X<X1X-X-X-X4X4XqXqX0X0XzXqX#X#X4X4X4X#X#XqX#X#X#X#X#X#X#X#XqX#X#X#X#X",
"#X#X#X#X#XqXqX#X#X#X#X#X#X#X#X#XqXqXqXqX4X#X+XoX4X4X4X<X<X<X<X-X=X=X-X1X2X#XqX0X0X0XqX#X#X4X4X<X#X#X#X#X#XqX#X#X#X#X#X#X#X#X#X#X"
};
