/* XPM */
static char *f3d0df695e5e4994e020c2cae5f25663fJsPqngIHmeyYCVr[] = {
/* columns rows colors chars-per-pixel */
"64 64 189 2 ",
"   c #86838C",
".  c #6F6B73",
"X  c #706D71",
"o  c #909090",
"O  c #89878D",
"+  c #838089",
"@  c #646066",
"#  c #7E7D7F",
"$  c #8E8D8F",
"%  c #78747C",
"&  c #656267",
"*  c gray55",
"=  c #8B8A8E",
"-  c #6C6970",
";  c #737174",
":  c #88868D",
">  c #807D85",
",  c #6E6B72",
"<  c #6F6C71",
"1  c #888788",
"2  c #828086",
"3  c #7D7A82",
"4  c #7D7982",
"5  c #7E7B83",
"6  c #7E7A83",
"7  c #666268",
"8  c #7A787B",
"9  c #868588",
"0  c #7F7C84",
"q  c #757279",
"w  c #676369",
"e  c #858486",
"r  c #848287",
"t  c #6D6970",
"y  c #726F73",
"u  c #827F86",
"i  c #6C686F",
"p  c #615D63",
"a  c #5E5A60",
"s  c #68646B",
"d  c #818083",
"f  c #7F7C81",
"g  c #7B7880",
"h  c #7A777F",
"j  c #635F66",
"k  c #6C696D",
"l  c #7D7A81",
"z  c #726E76",
"x  c #767377",
"c  c #6A666D",
"v  c #807E81",
"b  c #84818A",
"n  c #656168",
"m  c #89868D",
"M  c #79767E",
"N  c #807E80",
"B  c #6E6A71",
"V  c #676368",
"C  c #8E8D8E",
"Z  c #878687",
"A  c #838186",
"S  c #7F7C85",
"D  c #67636A",
"F  c #625E64",
"G  c #706D72",
"H  c #817F85",
"J  c #7C7981",
"K  c #76727A",
"L  c #7B797C",
"P  c #6D6A71",
"I  c #68656A",
"U  c #646067",
"Y  c #605C62",
"T  c #68646A",
"R  c #6B676E",
"E  c #6B686D",
"W  c #828184",
"Q  c #7E7B82",
"!  c #7A767E",
"~  c #625E65",
"^  c #757377",
"/  c #817F83",
"(  c #716E75",
")  c #635F65",
"_  c #7F7E81",
"`  c #7F7D82",
"'  c #69656C",
"]  c #6D6A6F",
"[  c #7F7B84",
"{  c #868486",
"}  c #817E85",
"|  c #666369",
" . c #79777A",
".. c #848386",
"X. c #747179",
"o. c #676469",
"O. c #838184",
"+. c #828085",
"@. c #716E73",
"#. c #807D84",
"$. c #706C73",
"%. c #6F6C72",
"&. c #6F6B72",
"*. c #656167",
"=. c #6A666C",
"-. c #8B8B8C",
";. c #87858A",
":. c #827F88",
">. c #817E86",
",. c #858289",
"<. c #77737B",
"1. c #7C7B7D",
"2. c #666267",
"3. c #898889",
"4. c #7D7B7E",
"5. c #7B787E",
"6. c #78757D",
"7. c #747078",
"8. c #737077",
"9. c #77747C",
"0. c #666269",
"q. c #7A767D",
"w. c #75727A",
"e. c #726F76",
"r. c #6D6971",
"t. c #7C7A7D",
"y. c #656268",
"u. c #716D74",
"i. c #6E6A72",
"p. c #605D63",
"a. c #716D73",
"s. c #706D73",
"d. c #6F6C70",
"f. c #8C8C8D",
"g. c #86848A",
"h. c #807D86",
"j. c #8A898C",
"k. c #646166",
"l. c #88868B",
"z. c #6B686F",
"x. c #716F73",
"c. c #85838A",
"v. c #6E6B71",
"b. c #7C797D",
"n. c #79767C",
"m. c #77747B",
"M. c #706D74",
"N. c #76737A",
"B. c #747176",
"V. c #7B787D",
"C. c #757179",
"Z. c #7A787C",
"A. c #7A777D",
"S. c #706C72",
"D. c #79757C",
"F. c #726E75",
"G. c #716E74",
"H. c #6A676D",
"J. c #6B686E",
"K. c #615E64",
"L. c #8D8D8E",
"P. c #89888C",
"I. c #706E72",
"U. c #86848B",
"Y. c #7E7C7F",
"T. c #666368",
"R. c #8B8B8B",
"E. c #7B787C",
"W. c #716D75",
"Q. c #6F6B71",
"!. c #78757B",
"~. c #7A777C",
"^. c #68656B",
"/. c #78767A",
"(. c #6A676C",
"). c #78747B",
"_. c #8D8D8D",
"`. c #87858B",
"'. c #817E87",
"]. c #8B8B8D",
"[. c #848189",
"{. c #8A898A",
"}. c #89878C",
"|. c #737074",
" X c #6D6A70",
".X c #726E74",
"XX c #7C797E",
"oX c #76737B",
"OX c #726F74",
/* pixels */
"            . X o o O                       + @ # o $                         % & * o =                         - ; o o :       ",
"            . X o o O                       + @ # o $                         % & * o =                         - ; o o :       ",
"            . X o o O                       + @ # o $                         % & * o =                         - ; o o :       ",
"> > > > > > , < 1 1 2 > > > 3 4 5 > > > > > 6 7 8 1 9 > > > 0 4 4 0 > > > > > q w e 1 r > > > 5 4 3 > > > > > > t y 1 1 u > > > ",
"t t t t t t t t t t t t t i p a @ t t t t t t t t t t t t t s a a s t t t t t t t t t t t t t @ a p i t t t t t t t t t t t t t ",
"t t t t t t t t t t t t t i p a @ t t t t t t t t t t t t t s a a s t t t t t t t t t t t t t @ a p i t t t t t t t t t t t t t ",
"d d f g g g g g g g g g g h j a k d d l g g g g g g g g g g z a a x f g g g g g g g g g g g g c a @ v l g g g g g g g g g g g g ",
"o o =                     b n a y o o m                     M a a N =                         B a V C m                         ",
"o o =                     b n a y o o m                     M a a N =                         B a V C m                         ",
"o o =                     b n a y o o m                     M a a N =                         B a V C m                         ",
"o o =                     b n a y o o m                     M a a N =                         B a V C m                         ",
"o o =                     b n a y o o m                     M a a N =                         B a V C m                         ",
"Z Z A S S S 3 3 S S S S S 5 D F G Z Z H S S 0 J 5 S S S S S K F F L A S S S S 5 J 0 S S S S S P F I e H S S S S 3 3 S S S S S S ",
"t t t t t t U j t t t t t t t t t t t t t t i Y T t t t t t t t t t t t t t t T Y i t t t t t t t t t t t t t t j U t t t t t t ",
"t t t t t t U j t t t t t t t t t t t t t t i Y T t t t t t t t t t t t t t t T Y i t t t t t t t t t t t t t t j U t t t t t t ",
"J J J J J J R E W W Q J J J J J J J J J J J ! ~ ^ W / J J J J J J J J J J J J ( ) _ W ` J J J J J J J J J J J J ' ] W W Q J J J ",
"            . X o o O                       + @ # o $                         % & * o =                         - ; o o :       ",
"            . X o o O                       + @ # o $                         % & * o =                         - ; o o :       ",
"            . X o o O                       + @ # o $                         % & * o =                         - ; o o :       ",
"            . X o o O                       + @ # o $                         % & * o =                         - ; o o :       ",
"            . X o o O                       + @ # o $                         % & * o =                         - ; o o :       ",
"[ [ [ [ [ [ , < { { } [ [ 5 g h J [ [ [ [ [ J |  .{ ..[ [ [ 3 h h 3 [ [ [ [ [ X.o.O.{ +.[ [ [ J h g 5 [ [ [ [ [ t @.{ { #.[ [ [ ",
"$.$.%.&.&.&.&.&.&.&.&.&.&.B p a *.$.$.&.&.&.&.&.&.&.&.&.&.&.' a a =.%.&.&.&.&.&.&.&.&.&.&.&.&.*.a p &.&.&.&.&.&.&.&.&.&.&.&.&.&.",
"-.-.;.:.:.:.:.:.:.:.:.:.:.>.U a X -.-.,.:.:.:.:.:.:.:.:.:.:.<.a a 1.;.:.:.:.:.:.:.:.:.:.:.:.:.- a 2.3.,.:.:.:.:.:.:.:.:.:.:.:.:.",
"o o =                     b n a y o o m                     M a a N =                         B a V C m                         ",
"o o =                     b n a y o o m                     M a a N =                         B a V C m                         ",
"o o =                     b n a y o o m                     M a a N =                         B a V C m                         ",
"o o =                     b n a y o o m                     M a a N =                         B a V C m                         ",
"o o =                     b n a y o o m                     M a a N =                         B a V C m                         ",
"4.4.5.6.6.6.7.8.6.6.6.6.6.9.' 0.< 4.4.q.6.6.% ( w.6.6.6.6.6.e.0.0.^ 5.6.6.6.6.w.( % 6.6.6.6.6.r.0.=.t.q.6.6.6.6.8.7.6.6.6.6.6.6.",
"t t t t t t U j t t t t t t t t t t t t t t i Y T t t t t t t t t t t t t t t T Y i t t t t t t t t t t t t t t j U t t t t t t ",
"$.$.$.$.$.$.y.*.u.u.$.$.$.$.$.$.$.$.$.$.$.$.i.p.=.u.a.$.$.$.$.$.$.$.$.$.$.$.$.' p %.u.s.$.$.$.$.$.$.$.$.$.$.$.$.U 7 u.u.$.$.$.$.",
"+ + + + + + B d.f.f.g.+ + + + + + + + + + + h.j t.f.j.+ + + + + + + + + + + + K k.3.f.l.+ + + + + + + + + + + + z.x.f.f.c.+ + + ",
"            . X o o O                       + @ # o $                         % & * o =                         - ; o o :       ",
"            . X o o O                       + @ # o $                         % & * o =                         - ; o o :       ",
"            . X o o O                       + @ # o $                         % & * o =                         - ; o o :       ",
"            . X o o O                       + @ # o $                         % & * o =                         - ; o o :       ",
"            . X o o O                       + @ # o $                         % & * o =                         - ; o o :       ",
"% % % % % % B v.b.b.n.% % m.M.. e.% % % % % N.' B.b.V.% % % C.. . C.% % % % % ( =.Z.b.A.% % % e.. M.m.% % % % % t S.b.b.D.% % % ",
"t t t t t t t t t t t t t i p a @ t t t t t t t t t t t t t s a a s t t t t t t t t t t t t t @ a p i t t t t t t t t t t t t t ",
"F.F.G.u.u.u.u.u.u.u.u.u.u.$.p a 7 F.F.u.u.u.u.u.u.u.u.u.u.u.H.a a J.G.u.u.u.u.u.u.u.u.u.u.u.u.n a K.G.u.u.u.u.u.u.u.u.u.u.u.u.u.",
"L.L.P.b b b b b b b b b b :.*.a I.L.L.U.b b b b b b b b b b % a a Y.P.b b b b b b b b b b b b t a T.R.U.b b b b b b b b b b b b ",
"o o =                     b n a y o o m                     M a a N =                         B a V C m                         ",
"o o =                     b n a y o o m                     M a a N =                         B a V C m                         ",
"o o =                     b n a y o o m                     M a a N =                         B a V C m                         ",
"o o =                     b n a y o o m                     M a a N =                         B a V C m                         ",
"o o =                     b n a y o o m                     M a a N =                         B a V C m                         ",
"E.E.n.<.<.<.( W.<.<.<.<.<.K c D Q.E.E.!.<.<.K . 8.<.<.<.<.<.F.D D B.n.<.<.<.<.8.. K <.<.<.<.<.t D H.~.!.<.<.<.<.W.( <.<.<.<.<.<.",
"<.<.<.<.<.<.^.I V.V.!.<.<.<.<.<.<.<.<.<.<.<.C.K.G V.~.<.<.<.<.<.<.<.<.<.<.<.<.B F /.V.n.<.<.<.<.<.<.<.<.<.<.<.<.D (.V.V.).<.<.<.",
"            . X o o O                       + @ # o $                         % & * o =                         - ; o o :       ",
"            . X o o O                       + @ # o $                         % & * o =                         - ; o o :       ",
"            . X o o O                       + @ # o $                         % & * o =                         - ; o o :       ",
"            . X o o O                       + @ # o $                         % & * o =                         - ; o o :       ",
"            . X o o O                       + @ # o $                         % & * o =                         - ; o o :       ",
"b b b b b b &.X _._.`.b b b + + + b b b b b '.U 4._.].b b b [.+ + [.b b b b b <.2.{._.}.b b b + + + b b b b b b - |._._.U.b b b ",
"u.u.u.u.u.u.t  X.X.Xu.u.u.$.0.@ ' u.u.u.u.u.$.i %..X.Xu.u.u.i @ @ i u.u.u.u.u., i G..XG.u.u.u.' @ 0.$.u.u.u.u.u.t B .X.Xu.u.u.u.",
"t t t t t t t t t t t t t i p a @ t t t t t t t t t t t t t s a a s t t t t t t t t t t t t t @ a p i t t t t t t t t t t t t t ",
"XXXXA.% % % % % % % % % % oX~ a =.XXXXD.% % % % % % % % % % . a a OXA.% % % % % % % % % % % % s a ) Z.D.% % % % % % % % % % % % ",
"o o =                     b n a y o o m                     M a a N =                         B a V C m                         ",
"o o =                     b n a y o o m                     M a a N =                         B a V C m                         ",
"o o =                     b n a y o o m                     M a a N =                         B a V C m                         ",
"o o =                     b n a y o o m                     M a a N =                         B a V C m                         ",
"o o =                     b n a y o o m                     M a a N =                         B a V C m                         ",
"o o =                     b n a y o o m                     M a a N =                         B a V C m                         "
};
